<?xml version="1.0" encoding="utf-8"?>
<!-- Generator: Adobe Illustrator 17.0.0, SVG Export Plug-In . SVG Version: 6.00 Build 0)  -->
<!DOCTYPE svg PUBLIC "-//W3C//DTD SVG 1.1//EN" "http://www.w3.org/Graphics/SVG/1.1/DTD/svg11.dtd">
<svg version="1.1" id="Layer_1" xmlns="http://www.w3.org/2000/svg" xmlns:xlink="http://www.w3.org/1999/xlink" x="0px" y="0px"
	 width="881.219px" height="464.408px" viewBox="0 0 881.219 464.408" enable-background="new 0 0 881.219 464.408"
	 xml:space="preserve">
<path d="M35.388,450.704c0,0-39.589-253.521-35.021-396.65L53.66,6.091H830.21l51.009,54.054c0,0-0.761,289.303-16.749,369.242
	c0,0,0,24.362-26.646,31.976H52.898C52.898,461.363,36.874,460.493,35.388,450.704z"/>
<path fill="#AAAAAA" d="M10.264,69.281h858.774c0,0-0.761,310.62-15.227,365.436c0,0-2.284,14.465-29.692,15.227H56.705
	c0,0-12.181,0.761-14.465-12.181C42.24,437.761,23.968,367.72,10.264,69.281z"/>
<g>
	<line fill="#AAAAAA" x1="64.318" y1="18.018" x2="361.235" y2="18.018"/>
	<rect x="64.318" y="17.018" fill="#AAAAAA" width="296.917" height="1.999"/>
</g>
<g>
	<line fill="#AAAAAA" x1="53.66" y1="32.229" x2="355.652" y2="32.229"/>
	<rect x="53.66" y="31.23" fill="#AAAAAA" width="301.992" height="1.999"/>
</g>
<g>
	<line fill="#AAAAAA" x1="48.077" y1="39.843" x2="355.652" y2="39.843"/>
	<rect x="48.077" y="38.843" fill="#AAAAAA" width="307.575" height="1.999"/>
</g>
<g>
	<line fill="#AAAAAA" x1="355.652" y1="46.948" x2="40.463" y2="46.948"/>
	<rect x="40.463" y="45.949" fill="#AAAAAA" width="315.188" height="1.999"/>
</g>
<g>
	<line fill="#AAAAAA" x1="24.729" y1="57.099" x2="350.069" y2="57.099"/>
	<rect x="24.729" y="56.099" fill="#AAAAAA" width="325.339" height="1.999"/>
</g>
<g>
	<line fill="#AAAAAA" x1="357.682" y1="24.109" x2="61.273" y2="24.109"/>
	<rect x="61.273" y="23.109" fill="#AAAAAA" width="296.409" height="1.999"/>
</g>
<g>
	<line fill="#AAAAAA" x1="533.294" y1="19.033" x2="827.682" y2="19.033"/>
	<rect x="533.294" y="18.033" fill="#AAAAAA" width="294.388" height="1.999"/>
</g>
<g>
	<line fill="#AAAAAA" x1="538.075" y1="33.244" x2="830.654" y2="33.244"/>
	<rect x="538.075" y="32.245" fill="#AAAAAA" width="292.58" height="1.999"/>
</g>
<g>
	<line fill="#AAAAAA" x1="541.597" y1="40.858" x2="835.504" y2="40.858"/>
	<rect x="541.597" y="39.858" fill="#AAAAAA" width="293.907" height="1.999"/>
</g>
<g>
	<line fill="#AAAAAA" x1="842.779" y1="48.471" x2="541.597" y2="48.471"/>
	<rect x="541.597" y="47.471" fill="#AAAAAA" width="301.182" height="1.999"/>
</g>
<g>
	<line fill="#AAAAAA" x1="544.113" y1="58.114" x2="858.379" y2="58.114"/>
	<rect x="544.113" y="57.115" fill="#AAAAAA" width="314.266" height="1.999"/>
</g>
<g>
	<line fill="#AAAAAA" x1="829.695" y1="25.124" x2="535.81" y2="25.124"/>
	<rect x="535.81" y="24.124" fill="#AAAAAA" width="293.885" height="1.999"/>
</g>
<path d="M116.088,128.664h643.573c0,0,12.181,38.574,47.71,29.438l-5.076,196.929c0,0-35.528,3.045-42.634,42.634H136.39
	c0,0,6.091-34.513-39.589-42.634L75.484,158.102C75.484,158.102,114.058,172.313,116.088,128.664z"/>
<g>
	<path fill="#AAAAAA" d="M756.616,394.366H139.689v-0.761c0-36.499-38.572-43.845-38.961-43.914l-0.559-0.1L78.621,159.763
		l1.294,0.718c3.81,2.117,7.549,3.19,11.112,3.19c18.829,0,28.301-29.856,28.395-30.158l0.165-0.531l0.555-0.005l633.96-6.096
		l0.184,0.506c10.833,29.791,28.605,34.238,38.234,34.238c5.053,0,8.471-1.185,8.505-1.197l1.016-0.358v191.572l-0.669,0.082
		c-40.496,4.94-43.966,41.571-43.998,41.941l-0.057,0.699H756.616z M141.206,392.843H755.94c0.7-5.194,6.587-37.543,44.579-42.543
		V162.168c-1.429,0.381-4.276,0.981-7.998,0.981c-9.973,0-28.312-4.529-39.479-34.734l-632.336,6.08
		c-1.408,4.248-10.929,30.699-29.678,30.699c-3.419,0-6.965-0.909-10.563-2.703l21.093,185.815
		C106.389,349.373,140.709,358.183,141.206,392.843z"/>
</g>
<path fill="#231F20" d="M86.493,121.614c-3.289-0.149-4.837-0.158-9.094-0.183c-4.257-0.025-6.241-2.682-6.225-5.327
	s2.038-6.439,5.263-6.419c3.225,0.019,17.416,0.104,17.416,0.104l0.04-6.709l-9.224-0.055l0.044-7.289l-6.644-0.04l-0.044,7.353
	c-3.354-0.149-13.497,2.564-13.557,12.563c-0.063,10.521,8.892,12.438,11.472,12.583c2.579,0.144,5.611,0.163,7.095,0.171
	c1.484,0.009,6.971-0.668,7.78,4.24c0.809,4.907-1.532,8.119-4.757,8.099s-17.61-0.041-17.61-0.041l-0.041,6.838l9.289,0.055
	l-0.043,7.289l6.709,0.04l0.043-7.289c8.517-0.272,13.841-6.175,13.438-14.305C97.438,125.163,89.782,121.763,86.493,121.614z"/>
<path fill="#231F20" d="M103.191,399.089c-3.289-0.149-4.837-0.158-9.094-0.183c-4.257-0.025-6.241-2.682-6.225-5.327
	c0.016-2.645,2.038-6.439,5.263-6.419c3.225,0.019,17.416,0.104,17.416,0.104l0.04-6.709l-9.224-0.055l0.044-7.289l-6.644-0.04
	l-0.044,7.354c-3.354-0.149-13.497,2.564-13.557,12.563c-0.063,10.521,8.892,12.438,11.472,12.583
	c2.579,0.144,5.611,0.163,7.095,0.171c1.484,0.009,6.971-0.668,7.78,4.24c0.809,4.907-1.532,8.119-4.757,8.099
	s-17.61-0.041-17.61-0.041l-0.041,6.838l9.289,0.055l-0.043,7.289l6.709,0.04l0.043-7.289c8.517-0.272,13.841-6.175,13.438-14.305
	C114.136,402.638,106.48,399.237,103.191,399.089z"/>
<path fill="#231F20" d="M805.777,121.614c-3.289-0.149-4.837-0.158-9.094-0.183c-4.257-0.025-6.241-2.682-6.225-5.327
	s2.038-6.439,5.263-6.419c3.225,0.019,17.416,0.104,17.416,0.104l0.04-6.709l-9.224-0.055l0.044-7.289l-6.644-0.04l-0.044,7.353
	c-3.354-0.149-13.497,2.564-13.557,12.563c-0.063,10.521,8.892,12.438,11.472,12.583c2.579,0.144,5.611,0.163,7.095,0.171
	c1.484,0.009,6.971-0.668,7.78,4.24c0.809,4.907-1.532,8.119-4.757,8.099c-3.225-0.019-17.61-0.041-17.61-0.041l-0.041,6.838
	l9.289,0.055l-0.044,7.289l6.709,0.04l0.043-7.289c8.517-0.272,13.841-6.175,13.438-14.305
	C816.722,125.163,809.066,121.763,805.777,121.614z"/>
<path fill="#231F20" d="M798.671,399.089c-3.289-0.149-4.837-0.158-9.094-0.183c-4.257-0.025-6.241-2.682-6.225-5.327
	s2.038-6.439,5.263-6.419c3.225,0.019,17.416,0.104,17.416,0.104l0.04-6.709l-9.224-0.055l0.044-7.289l-6.644-0.04l-0.044,7.354
	c-3.354-0.149-13.497,2.564-13.557,12.563c-0.063,10.521,8.892,12.438,11.472,12.583c2.579,0.144,5.611,0.163,7.095,0.171
	c1.484,0.009,6.971-0.668,7.78,4.24c0.809,4.907-1.532,8.119-4.757,8.099c-3.225-0.019-17.61-0.041-17.61-0.041l-0.041,6.838
	l9.289,0.055l-0.044,7.289l6.709,0.04l0.043-7.289c8.517-0.272,13.841-6.175,13.439-14.305
	C809.616,402.638,801.96,399.237,798.671,399.089z"/>
<ellipse fill="#AAAAAA" cx="205.544" cy="264.18" rx="32.356" ry="32.737"/>
<ellipse fill="#AAAAAA" cx="666.906" cy="264.18" rx="32.356" ry="32.737"/>
<polygon points="379.506,3.807 350.069,3.807 338.395,69.281 338.395,449.943 379.506,449.951 "/>
<ellipse fill="#AAAAAA" cx="435.844" cy="268.747" rx="136.277" ry="151.504"/>
<path fill="#9B9B9B" d="M521.749,464.408H368.202L355.893,65.385L369.827,0h151.321l13.935,65.389L521.749,464.408z
	 M375.585,456.795h138.801l13.058-390.729L514.986,7.613H375.989L363.531,66.07L375.585,456.795z"/>
<polygon fill="#FFFFFF" points="518.067,460.601 531.264,65.728 518.067,3.807 372.908,3.807 359.712,65.728 371.893,460.601 "/>
<path fill="#231F20" d="M454.748,252.854c-5.716-0.258-8.407-0.274-15.806-0.319c-7.399-0.044-10.847-4.661-10.819-9.258
	s3.542-11.19,9.148-11.156c5.605,0.033,30.269,0.181,30.269,0.181l0.07-11.659l-16.031-0.096l0.076-12.668l-11.547-0.069
	l-0.076,12.78c-5.828-0.259-23.458,4.456-23.561,21.833c-0.109,18.285,15.454,21.617,19.937,21.868
	c4.483,0.251,9.752,0.283,12.33,0.298c2.578,0.015,12.115-1.161,13.521,7.368c1.406,8.529-2.663,14.11-8.268,14.076
	c-5.605-0.034-30.605-0.071-30.605-0.071l-0.071,11.883l16.143,0.096l-0.076,12.668l11.659,0.07l0.076-12.668
	c14.801-0.472,24.056-10.731,23.355-24.861C473.77,259.022,460.464,253.112,454.748,252.854z"/>
<polygon fill="#AAAAAA" points="382.085,7.292 367.628,55.529 367.68,57.146 513.591,56.363 496.348,7.77 "/>
<g>
	<rect x="359.712" y="64.967" fill="#AAAAAA" width="175.372" height="1.523"/>
</g>
</svg>
