<?xml version="1.0" encoding="utf-8"?>
<!-- Generator: Adobe Illustrator 17.0.0, SVG Export Plug-In . SVG Version: 6.00 Build 0)  -->
<!DOCTYPE svg PUBLIC "-//W3C//DTD SVG 1.1//EN" "http://www.w3.org/Graphics/SVG/1.1/DTD/svg11.dtd">
<svg version="1.1" id="Layer_1" xmlns="http://www.w3.org/2000/svg" xmlns:xlink="http://www.w3.org/1999/xlink" x="0px" y="0px"
	 width="756.03px" height="1369.238px" viewBox="0 0 756.03 1369.238" enable-background="new 0 0 756.03 1369.238"
	 xml:space="preserve">
<g>
	<path d="M55.482,48.606l518.974-48.22c0,0,70.497-11.777,79.496,94.718l101.995,1154.942c0,0,6,67.497-83.996,73.496
		l-475.476,44.998c0,0-86.996,16.499-95.995-110.994L1.739,141.602C1.739,141.602-15.015,66.605,55.482,48.606z"/>
	<path d="M187.475,72.605L71.981,83.105c0,0-35.998,1.5-32.998,47.998l103.495,1169.942c0,0-3,29.999,53.997,29.999l487.476-43.498
		c0,0,38.998-3,35.998-40.498L616.453,83.105c0,0,3-52.497-64.497-44.998l-85.496,7.5c0,0,14.999,49.498-29.999,49.498
		l-227.989,16.499C208.474,111.603,184.475,113.103,187.475,72.605z"/>
</g>
<path fill="none" d="M280.225,514.098c-4.263,0.41-6.296,3.679-5.971,7.057c0.378,3.931,3.816,5.389,7.191,5.623L280.225,514.098z"
	/>
<path fill="none" d="M299.181,1091.541l219.002-21.058c3.965-0.381,6.881-3.917,6.5-7.882l-4.468-46.47
	c-0.381-3.965-3.917-6.881-7.882-6.5l-219.002,21.058c-3.965,0.381-6.881,3.918-6.499,7.883l4.468,46.47
	C291.68,1089.006,295.216,1091.922,299.181,1091.541z M420.474,1041.403l6.05,13.873l0.067-0.006l3.33-14.775l3.261-0.314
	c-1.497,5.946-2.963,11.89-4.662,17.856c-2.105,7.396-2.369,7.829-6.169,8.194c-0.436,0.042-0.785-0.061-1.269-0.15l-0.259-2.69
	c0.383,0.099,1.004,0.209,1.811,0.131c1.547-0.149,1.673-0.602,2.735-4.369l-8.258-17.428L420.474,1041.403z M406.409,1044.723
	c-3.362,0.323-3.636,2.419-3.709,3.784l-2.723,0.262c-0.269-4.216,2.363-6.132,6.7-6.549c1.412-0.136,6.562-0.224,6.995,4.281
	l0.973,10.12c0.071,0.74,0.471,1.007,1.075,0.948c0.27-0.026,0.632-0.128,0.963-0.228l0.207,2.152
	c-0.492,0.183-0.909,0.427-1.583,0.491c-2.623,0.252-3.155-1.053-3.385-2.389c-1.023,1.354-2.651,3.139-6.08,3.469
	c-3.227,0.31-5.711-1.521-6.002-4.547c-0.142-1.479-0.034-4.951,4.816-6.028l4.817-1.074c0.7-0.135,1.515-0.485,1.347-2.234
	C410.642,1045.334,409.2,1044.455,406.409,1044.723z M376.881,1038.977l10.861-1.044c4.472-0.43,7.438,2.203,7.813,6.104
	c0.323,3.362-1.228,7.345-6.472,7.85l-7.599,0.731l0.98,10.188l-3.261,0.314L376.881,1038.977z"/>
<path fill="none" d="M392.196,1044.393c-0.294-3.059-2.472-3.834-5.162-3.575l-6.623,0.637l0.805,8.372l6.49-0.624
	C390.629,1048.921,392.51,1047.654,392.196,1044.393z"/>
<path fill="none" d="M391.782,859.355c2.217-0.213,3.51-1.78,3.33-3.646c-0.121-1.254-1.111-2.984-4.116-2.695
	c-2.742,0.264-3.231,2.224-3.104,3.537C388.08,858.504,389.915,859.534,391.782,859.355z"/>
<path fill="none" d="M402.858,1055.787c0.184,1.916,1.269,2.966,3.488,2.753c2.756-0.265,5.275-2.306,5.049-4.659l-0.278-2.891
	c-0.435,0.415-1.149,0.755-4.768,1.578C404.923,1052.908,402.645,1053.568,402.858,1055.787z"/>
<polygon fill="none" points="239.25,783.286 239.194,783.291 233.843,792.717 240.099,792.115 "/>
<path fill="none" d="M292.576,538.505c-0.298-3.1-2.516-5.235-4.91-5.731l-3.081-0.654l1.352,14.065
	C290.866,545.712,292.922,542.105,292.576,538.505z"/>
<path fill="none" d="M519.073,770.514c2.325-0.224,3.643-2.194,3.39-4.823c-0.165-1.715-1.308-4.008-4.323-3.718
	c-2.685,0.258-3.799,2.321-3.578,4.618C514.762,768.666,516.222,770.788,519.073,770.514z"/>
<path fill="none" d="M394.287,932.716c0.494,5.134,2.132,8.096,5.079,7.813c2.945-0.283,3.991-3.504,3.497-8.638
	c-0.494-5.133-2.135-8.096-5.079-7.813C394.837,924.362,393.793,927.583,394.287,932.716z"/>
<path fill="none" d="M525.153,839.556c-2.27,0.218-3.594,2.133-3.344,4.735c0.359,3.737,2.729,3.983,4.362,3.826
	c1.272-0.122,3.68-0.94,3.31-4.788C529.269,841.115,527.948,839.287,525.153,839.556z"/>
<path fill="none" d="M392.928,869.43c1.867-0.18,4.048-1.066,3.74-4.275c-0.266-2.771-2.309-3.811-4.643-3.586
	c-2.887,0.278-4.046,2.302-3.864,4.198C388.317,867.401,389.37,869.772,392.928,869.43z"/>
<polygon fill="#F5F5F5" points="459.411,1289.419 459.9,1289.356 459.446,1285.795 458.953,1285.819 458.376,1281.277 
	404.441,1288.14 405.542,1296.79 459.476,1289.927 "/>
<g>
	<path fill="#FFFFFF" d="M267.909,284.176c0.103,1.071,0.709,1.657,1.95,1.538c1.541-0.148,2.948-1.288,2.822-2.604l-0.155-1.616
		c-0.244,0.232-0.643,0.422-2.665,0.882C269.062,282.567,267.789,282.936,267.909,284.176z"/>
	<path fill="#FFFFFF" d="M262.891,277.717c-0.164-1.71-1.382-2.142-2.885-1.998l-3.702,0.356l0.45,4.678l3.627-0.349
		C262.015,280.248,263.067,279.54,262.891,277.717z"/>
	<path fill="#FFFFFF" d="M237.105,305.838l80.087-7.701l1.484-0.143l110.737-10.648c4.039-0.388,7.009-3.991,6.62-8.029
		l-2.709-28.179c-0.388-4.039-3.99-7.009-8.029-6.621l-110.737,10.648l-1.484,0.143l-80.087,7.701
		c-4.039,0.388-7.01,3.991-6.621,8.03l2.709,28.179C229.463,303.256,233.066,306.226,237.105,305.838z M432.02,251.264l2.709,28.179
		c0.319,3.321-2.122,6.282-5.442,6.601L318.145,296.73l-0.674,0.065l-3.868-40.223l0.674-0.065l111.142-10.687
		C428.74,245.501,431.701,247.943,432.02,251.264z M255.629,288.182l-1.297-13.49l6.069-0.584c2.499-0.24,4.157,1.231,4.367,3.41
		c0.181,1.879-0.685,4.105-3.617,4.387l-4.246,0.408l0.547,5.693L255.629,288.182z M269.893,277.992
		c-1.878,0.181-2.031,1.352-2.072,2.115l-1.522,0.146c-0.15-2.356,1.321-3.427,3.745-3.66c0.789-0.076,3.666-0.125,3.908,2.393
		l0.544,5.656c0.04,0.413,0.263,0.562,0.602,0.53c0.15-0.014,0.353-0.072,0.537-0.127l0.116,1.203
		c-0.275,0.102-0.509,0.238-0.884,0.274c-1.466,0.141-1.763-0.589-1.892-1.335c-0.572,0.756-1.482,1.754-3.398,1.938
		c-1.803,0.173-3.191-0.85-3.354-2.541c-0.08-0.827-0.02-2.767,2.69-3.369l2.692-0.6c0.391-0.075,0.847-0.271,0.753-1.248
		C272.259,278.334,271.453,277.842,269.893,277.992z M274.934,276.408l1.879-0.181l3.381,7.753l0.038-0.004l1.861-8.257l1.822-0.175
		c-0.836,3.323-1.655,6.645-2.606,9.979c-1.176,4.133-1.323,4.375-3.447,4.579c-0.243,0.023-0.439-0.034-0.709-0.084l-0.145-1.503
		c0.215,0.055,0.561,0.117,1.013,0.073c0.864-0.083,0.935-0.336,1.529-2.442L274.934,276.408z"/>
	<path fill="#141414" d="M357.5,269.682c-1.522,0.146-2.589,1.671-2.443,3.193l5.467-0.526
		C360.285,270.837,359.511,269.489,357.5,269.682z"/>
	<path fill="#141414" d="M349.04,269.434c-0.201-2.086-1.739-2.108-2.641-2.021l-4.547,0.437l0.441,4.584l4.227-0.406
		C347.854,271.899,349.232,271.426,349.04,269.434z"/>
	<path fill="#141414" d="M388.835,266.67c-1.522,0.146-2.589,1.671-2.443,3.193l5.467-0.526
		C391.62,267.824,390.845,266.476,388.835,266.67z"/>
	<path fill="#141414" d="M368.438,276.178c1.052-0.101,2.621-0.954,2.37-3.566c-0.154-1.597-0.664-4.146-3.05-3.917
		c-2.555,0.246-2.454,2.683-2.333,3.941C365.631,274.798,366.635,276.352,368.438,276.178z"/>
	<path fill="#141414" d="M314.278,256.507l-0.674,0.065l3.868,40.223l0.674-0.065l111.142-10.687
		c3.32-0.319,5.762-3.281,5.442-6.601l-2.709-28.179c-0.319-3.321-3.281-5.762-6.601-5.443L314.278,256.507z M403.577,264.038
		l1.334-0.128l-0.264-2.743l1.653-0.159l0.264,2.743l1.579-0.152l0.132,1.372l-1.579,0.152l0.614,6.389
		c0.074,0.77,0.732,0.707,1.07,0.674l0.583-0.056l0.125,1.297c-0.596,0.115-1.059,0.235-1.228,0.251
		c-1.634,0.157-2.08-0.729-2.194-1.913l-0.623-6.482l-1.334,0.128L403.577,264.038z M399.581,270.188l-1.962-0.286
		c-1.404-0.206-2.372-0.815-2.502-2.167c-0.208-2.161,1.482-3.31,3.418-3.496c3.513-0.338,4.007,2.232,4.054,2.72l-1.597,0.154
		c-0.079-0.618-0.403-1.63-2.489-1.429c-0.506,0.049-1.937,0.356-1.82,1.578c0.078,0.808,0.602,0.947,1.91,1.144l1.694,0.254
		c2.096,0.31,2.882,0.993,3.011,2.327c0.195,2.029-1.36,3.411-3.576,3.625c-3.89,0.374-4.388-1.854-4.558-3.032l1.597-0.154
		c0.13,0.765,0.475,1.984,2.805,1.759c1.183-0.114,2.21-0.687,2.105-1.776C401.595,270.62,401.025,270.409,399.581,270.188z
		 M388.917,265.164c2.836-0.273,4.444,1.848,4.778,5.324l-7.177,0.69c0.197,2.048,1.269,3.14,3.166,2.958
		c1.56-0.15,2.364-1.441,2.35-2.179l1.654-0.159c-0.012,0.475-0.329,1.909-1.489,2.855c-0.423,0.344-1.026,0.781-2.603,0.933
		c-2.763,0.266-4.597-1.663-4.87-4.5C384.434,268.041,385.666,265.476,388.917,265.164z M374.309,266.853l1.653-0.159l0.627,6.52
		c0.155,1.616,1.035,2.082,2.106,1.979c2.086-0.201,2.528-2.101,2.391-3.53l-0.52-5.411l1.653-0.159l0.945,9.827l-1.559,0.15
		l-0.137-1.428l-0.042-0.034c-0.585,1.213-1.372,1.895-2.951,2.047c-1.447,0.139-3.261-0.388-3.487-2.737L374.309,266.853z
		 M367.314,267.241c1.784-0.172,2.643,0.865,3.091,1.39l0.038-0.004l-0.134-1.39l1.559-0.15l1.319,13.716l-1.653,0.159l-0.473-4.923
		l-0.038,0.004c-0.365,0.736-1.17,1.44-2.485,1.566c-3.344,0.322-4.623-2.723-4.849-5.071
		C363.424,269.777,364.701,267.492,367.314,267.241z M357.583,268.176c2.836-0.273,4.444,1.848,4.778,5.324l-7.177,0.69
		c0.197,2.048,1.269,3.14,3.166,2.958c1.56-0.15,2.364-1.441,2.35-2.179l1.654-0.159c-0.012,0.475-0.329,1.909-1.489,2.855
		c-0.423,0.344-1.026,0.781-2.603,0.933c-2.763,0.266-4.597-1.663-4.87-4.5C353.1,271.054,354.332,268.489,357.583,268.176z
		 M339.879,266.466l6.239-0.6c2.217-0.213,4.507,0.344,4.782,3.2c0.191,1.991-0.752,2.822-1.568,3.412
		c0.801,0.246,1.603,0.51,1.86,2.381l0.347,2.432c0.091,0.75,0.213,1.022,0.807,1.288l0.029,0.3l-2.236,0.215
		c-0.343-0.801-0.596-2.844-0.645-3.352c-0.107-1.108-0.458-2.383-2.636-2.174l-4.416,0.425l0.556,5.787l-1.823,0.175
		L339.879,266.466z"/>
	<path fill="#0F0F0F" d="M261.151,281.905c2.932-0.282,3.798-2.508,3.617-4.387c-0.21-2.18-1.868-3.651-4.367-3.41l-6.069,0.584
		l1.297,13.49l1.822-0.175l-0.547-5.693L261.151,281.905z M256.305,276.075l3.702-0.356c1.503-0.145,2.721,0.288,2.885,1.998
		c0.175,1.823-0.877,2.531-2.51,2.688l-3.627,0.349L256.305,276.075z"/>
	<path fill="#0F0F0F" d="M271.605,280.615l-2.692,0.6c-2.71,0.602-2.77,2.541-2.69,3.369c0.163,1.691,1.55,2.714,3.354,2.541
		c1.916-0.184,2.826-1.182,3.398-1.938c0.128,0.746,0.426,1.476,1.892,1.335c0.375-0.036,0.609-0.172,0.884-0.274l-0.116-1.203
		c-0.185,0.056-0.387,0.113-0.537,0.127c-0.338,0.033-0.562-0.117-0.602-0.53l-0.544-5.656c-0.242-2.518-3.119-2.469-3.908-2.393
		c-2.424,0.233-3.894,1.304-3.745,3.66l1.522-0.146c0.041-0.763,0.194-1.934,2.072-2.115c1.56-0.15,2.366,0.341,2.466,1.375
		C272.452,280.344,271.996,280.54,271.605,280.615z M272.68,283.11c0.126,1.315-1.281,2.455-2.822,2.604
		c-1.241,0.119-1.847-0.467-1.95-1.538c-0.119-1.24,1.154-1.609,1.951-1.799c2.022-0.46,2.421-0.65,2.665-0.882L272.68,283.11z"/>
	<path fill="#0F0F0F" d="M278.021,288.589c-0.452,0.043-0.798-0.018-1.013-0.073l0.145,1.503c0.271,0.05,0.466,0.107,0.709,0.084
		c2.124-0.204,2.271-0.446,3.447-4.579c0.951-3.334,1.769-6.656,2.606-9.979l-1.822,0.175l-1.861,8.257l-0.038,0.004l-3.381-7.753
		l-1.879,0.181l4.616,9.739C278.956,288.252,278.885,288.506,278.021,288.589z"/>
	<path fill="#FFFFFF" d="M342.443,273.993l4.416-0.425c2.179-0.209,2.53,1.065,2.636,2.174c0.049,0.508,0.302,2.55,0.645,3.352
		l2.236-0.215l-0.029-0.3c-0.594-0.266-0.716-0.539-0.807-1.288l-0.347-2.432c-0.257-1.871-1.059-2.135-1.86-2.381
		c0.815-0.59,1.759-1.421,1.568-3.412c-0.275-2.856-2.565-3.413-4.782-3.2l-6.239,0.6l1.297,13.49l1.823-0.175L342.443,273.993z
		 M341.853,267.85l4.547-0.437c0.902-0.087,2.44-0.064,2.641,2.021c0.192,1.992-1.186,2.466-2.519,2.594l-4.227,0.406
		L341.853,267.85z"/>
	<path fill="#FFFFFF" d="M358.263,278.598c1.578-0.152,2.181-0.589,2.603-0.933c1.16-0.946,1.477-2.38,1.489-2.855l-1.654,0.159
		c0.014,0.738-0.79,2.029-2.35,2.179c-1.897,0.182-2.969-0.91-3.166-2.958l7.177-0.69c-0.334-3.476-1.942-5.597-4.778-5.324
		c-3.251,0.313-4.483,2.878-4.19,5.921C353.666,276.935,355.5,278.863,358.263,278.598z M357.5,269.682
		c2.011-0.193,2.785,1.155,3.024,2.668l-5.467,0.526C354.912,271.354,355.979,269.829,357.5,269.682z"/>
	<path fill="#FFFFFF" d="M368.538,277.61c1.315-0.126,2.12-0.83,2.485-1.566l0.038-0.004l0.473,4.923l1.653-0.159l-1.319-13.716
		l-1.559,0.15l0.134,1.39l-0.038,0.004c-0.449-0.525-1.307-1.562-3.091-1.39c-2.612,0.251-3.89,2.536-3.625,5.298
		C363.915,274.887,365.194,277.931,368.538,277.61z M367.757,268.696c2.386-0.229,2.897,2.32,3.05,3.917
		c0.251,2.612-1.317,3.464-2.37,3.566c-1.803,0.173-2.807-1.38-3.014-3.541C365.302,271.379,365.202,268.942,367.757,268.696z"/>
	<path fill="#FFFFFF" d="M378.475,276.654c1.579-0.152,2.366-0.834,2.951-2.047l0.042,0.034l0.137,1.428l1.559-0.15l-0.945-9.827
		l-1.653,0.159l0.52,5.411c0.137,1.428-0.305,3.329-2.391,3.53c-1.071,0.103-1.951-0.363-2.106-1.979l-0.627-6.52l-1.653,0.159
		l0.679,7.065C375.214,276.266,377.028,276.793,378.475,276.654z"/>
	<path fill="#FFFFFF" d="M389.597,275.585c1.578-0.152,2.181-0.589,2.603-0.933c1.16-0.946,1.477-2.38,1.489-2.855l-1.654,0.159
		c0.014,0.738-0.79,2.029-2.35,2.179c-1.897,0.182-2.969-0.909-3.166-2.958l7.177-0.69c-0.334-3.476-1.942-5.597-4.778-5.324
		c-3.251,0.313-4.483,2.878-4.19,5.921C385,273.922,386.834,275.851,389.597,275.585z M388.835,266.67
		c2.011-0.193,2.785,1.155,3.024,2.668l-5.467,0.526C386.246,268.341,387.313,266.816,388.835,266.67z"/>
	<path fill="#FFFFFF" d="M399.566,273.185c-2.33,0.224-2.674-0.994-2.805-1.759l-1.597,0.154c0.17,1.178,0.668,3.406,4.558,3.032
		c2.217-0.213,3.771-1.596,3.576-3.625c-0.128-1.334-0.914-2.017-3.011-2.327l-1.694-0.254c-1.308-0.197-1.833-0.336-1.91-1.144
		c-0.117-1.222,1.313-1.529,1.82-1.578c2.086-0.201,2.41,0.811,2.489,1.429l1.597-0.154c-0.047-0.488-0.541-3.058-4.054-2.72
		c-1.935,0.186-3.626,1.335-3.418,3.496c0.13,1.353,1.098,1.961,2.502,2.167l1.962,0.286c1.444,0.221,2.014,0.432,2.09,1.221
		C401.776,272.498,400.749,273.072,399.566,273.185z"/>
	<path fill="#FFFFFF" d="M405.666,271.764c0.114,1.184,0.56,2.07,2.194,1.913c0.169-0.016,0.632-0.137,1.228-0.251l-0.125-1.297
		l-0.583,0.056c-0.338,0.033-0.996,0.096-1.07-0.674l-0.614-6.389l1.579-0.152l-0.132-1.372l-1.579,0.152l-0.264-2.743l-1.653,0.159
		l0.264,2.743l-1.334,0.128l0.132,1.372l1.334-0.128L405.666,271.764z"/>
</g>
<path fill="#FFFFFF" d="M230.853,713.668l2.371-0.228l-1.704-17.723l-1.74,0.167c-0.428,2.967-1.586,3.358-4.441,3.836l0.17,1.765
	l4.134-0.398L230.853,713.668z"/>
<path fill="#FFFFFF" d="M243.192,798.717l-0.455-4.732l2.85-0.274l-0.202-2.103l-2.85,0.274l-1.214-12.621l-2.021,0.194l-7.725,13.2
	l0.229,2.381l8.497-0.817l0.455,4.732L243.192,798.717z M233.843,792.717l5.351-9.425l0.056-0.005l0.849,8.829L233.843,792.717z"/>
<path fill="#FFFFFF" d="M246.275,884.3c0.586-8.985,4.713-15.751,6.488-17.997l-0.209-2.169l-13.693,1.317l0.233,2.423l10.904-1.048
	c-3.378,4.789-6.302,12.236-6.456,17.738L246.275,884.3z"/>
<path fill="#FFFFFF" d="M375.206,696.863l2.017-1.372c2.906-1.928,5.178-3.707,4.824-7.382c-0.367-3.821-3.447-5.85-7.005-5.508
	c-2.217,0.213-7.023,1.352-6.381,8.032l2.567-0.247c-0.051-1.437-0.223-5.071,3.657-5.444c3.004-0.289,4.253,1.681,4.41,3.315
	c0.258,2.683-1.236,3.681-3.303,5.145l-2.562,1.836c-2.588,1.868-4.293,4.328-4.03,8.6l14.029-1.349l-0.233-2.421l-11.142,1.071
	C372.096,700.341,372.554,698.678,375.206,696.863z"/>
<path fill="#FFFFFF" d="M383.86,784.069c-2.226,0.214-4.041-0.635-4.518-2.921l-2.564,0.247c0.905,4.377,4.329,5.1,6.921,4.85
	c6.198-0.596,6.727-5.452,6.515-7.65c-0.393-4.085-3.905-6.022-7.117-5.713c-1.775,0.171-2.93,0.879-3.712,1.608l0.322-5.519
	l8.396-0.807l-0.233-2.423l-10.255,0.986l-0.473,10.765l2.152-0.093c0.812-1.301,2.044-2.102,3.481-2.24
	c2.451-0.236,4.544,1.127,4.818,3.973C387.832,781.611,386.424,783.823,383.86,784.069z"/>
<path fill="#FFFFFF" d="M385.413,865.973c0.095,0.991,0.308,3.208,2.568,4.669c1.757,1.127,3.944,1.211,5.081,1.101
	c4.842-0.466,6.637-3.847,6.32-7.143c-0.149-1.546-0.952-3.765-3.834-4.666c0.859-0.553,2.493-1.623,2.21-4.569
	c-0.23-2.392-2.288-5.108-6.837-4.671c-4.9,0.471-5.877,4.097-5.672,6.227c0.185,1.925,1.34,3.227,3.156,3.729
	C386.33,861.734,385.171,863.464,385.413,865.973z M387.892,856.549c-0.126-1.313,0.362-3.273,3.104-3.537
	c3.004-0.289,3.995,1.441,4.116,2.695c0.18,1.867-1.113,3.433-3.33,3.646C389.915,859.534,388.08,858.504,387.892,856.549z
	 M392.024,861.569c2.334-0.224,4.377,0.815,4.643,3.586c0.309,3.209-1.873,4.095-3.74,4.275c-3.558,0.342-4.61-2.029-4.768-3.663
	C387.978,863.871,389.137,861.847,392.024,861.569z"/>
<path fill="#FFFFFF" d="M391.546,932.98c0.41,4.259,2.15,10.421,8.042,9.854c5.892-0.566,6.426-6.947,6.017-11.206
	c-0.409-4.258-2.15-10.42-8.042-9.853C391.671,922.341,391.136,928.721,391.546,932.98z M402.864,931.891
	c0.494,5.134-0.553,8.355-3.497,8.638c-2.947,0.283-4.586-2.679-5.079-7.813c-0.494-5.133,0.55-8.354,3.497-8.638
	C400.729,923.795,402.37,926.758,402.864,931.891z"/>
<path fill="#FFFFFF" d="M511.383,687.951c-3.756,0.361-4.46-2.146-4.728-4.03l-2.609,0.251c0.394,2.306,1.22,4.57,3.57,5.53
	c1.024,0.422,2.32,0.674,3.811,0.531c5.133-0.494,6.947-3.88,6.63-7.177c-0.259-2.695-1.796-3.936-3.806-4.379l-0.005-0.057
	c1.056-0.449,2.429-1.825,2.181-4.405c-0.295-3.068-2.831-5.081-6.73-4.706c-5.306,0.51-6.16,4.267-5.876,7.22l2.466-0.237
	c-0.021-1.416-0.073-4.362,3.513-4.707c3.008-0.289,3.916,1.62,4.032,2.824c0.243,2.523-1.574,3.479-3.526,3.667
	c-0.43,0.041-0.891,0.057-1.324,0.07l0.21,2.179c0.374-0.036,0.771-0.103,1.145-0.139c1.72-0.165,4.731-0.137,5.056,3.247
	C515.616,685.953,513.963,687.703,511.383,687.951z"/>
<path fill="#FFFFFF" d="M517.766,754.886c2.103-0.202,3.168,0.98,3.637,2.667l2.38-0.229c-0.629-3.934-3.93-4.845-6.172-4.63
	c-5.812,0.559-6.604,6.836-6.194,11.098c0.245,2.546,0.804,4.894,2.143,6.61c1.592,2.025,3.786,2.484,5.281,2.341
	c2.74-0.263,3.831-1.122,4.745-2.356c1.19-1.567,1.579-3.057,1.387-5.05c-0.447-4.65-4.303-5.815-6.684-5.586
	c-2.657,0.255-3.884,1.714-4.393,2.825l-0.06-0.05C513.639,760.478,513.947,755.253,517.766,754.886z M518.14,761.972
	c3.016-0.29,4.158,2.003,4.323,3.718c0.253,2.63-1.065,4.6-3.39,4.823c-2.852,0.274-4.312-1.848-4.511-3.924
	C514.341,764.294,515.455,762.23,518.14,761.972z"/>
<path fill="#FFFFFF" d="M526.338,855.364c-1.993,0.192-3.273-0.914-3.601-2.866l-2.436,0.234c0.181,1.882,1.719,5.086,6.285,4.647
	c6.698-0.644,6.203-9.563,6.004-11.639c-0.303-3.155-1.476-8.964-7.675-8.367c-4.096,0.394-5.955,3.729-5.614,7.271
	c0.373,3.875,3.124,6.041,6.721,5.695c1.799-0.173,3.657-1.19,4.233-2.753l0.06,0.049
	C530.191,852.731,528.995,855.108,526.338,855.364z M526.172,848.117c-1.633,0.157-4.003-0.09-4.362-3.826
	c-0.25-2.602,1.073-4.517,3.344-4.735c2.794-0.269,4.116,1.56,4.329,3.774C529.852,847.177,527.444,847.995,526.172,848.117z"/>
<path fill="#FFFFFF" d="M237.435,955.698l26.127-2.512l-1.927-20.042l-26.127,2.512l-6.794,10.935L237.435,955.698z M243.829,941.01
	l2.011-0.193l2.468,3.068l1.838-3.482l1.921-0.185l-2.715,4.823l3.734,4.472l-1.993,0.192l-2.651-3.283l-1.905,3.721l-1.975,0.19
	l2.814-5.102L243.829,941.01z"/>
<polygon points="246.539,950.143 248.444,946.421 251.094,949.705 253.087,949.513 249.353,945.041 252.067,940.218 
	250.146,940.403 248.308,943.885 245.84,940.817 243.829,941.01 247.378,945.231 244.564,950.333 "/>
<rect x="532.288" y="914.999" transform="matrix(0.0957 0.9954 -0.9954 0.0957 1395.0111 297.4139)" fill="#FFFFFF" width="3.053" height="2.995"/>
<path fill="#707070" d="M299.557,1095.45l219.002-21.058c6.121-0.589,10.621-6.047,10.033-12.167l-4.468-46.47
	c-0.589-6.121-6.047-10.622-12.167-10.033l-219.002,21.058c-6.121,0.589-10.621,6.047-10.033,12.168l4.468,46.47
	C287.978,1091.538,293.437,1096.038,299.557,1095.45z M286.831,1038.571c-0.381-3.965,2.534-7.502,6.499-7.883l219.002-21.058
	c3.965-0.381,7.501,2.535,7.882,6.5l4.468,46.47c0.381,3.965-2.534,7.501-6.5,7.882l-219.002,21.058
	c-3.965,0.381-7.501-2.534-7.882-6.5L286.831,1038.571z"/>
<path fill="#FFFFFF" d="M381.484,1052.616l7.599-0.731c5.244-0.504,6.795-4.488,6.472-7.85c-0.375-3.9-3.342-6.533-7.813-6.104
	l-10.861,1.044l2.321,24.141l3.261-0.314L381.484,1052.616z M380.41,1041.454l6.623-0.637c2.69-0.259,4.868,0.516,5.162,3.575
	c0.314,3.261-1.567,4.528-4.491,4.809l-6.49,0.624L380.41,1041.454z"/>
<path fill="#FFFFFF" d="M409.472,1049.417l-4.817,1.074c-4.85,1.077-4.958,4.548-4.816,6.028c0.291,3.026,2.775,4.857,6.002,4.547
	c3.429-0.33,5.057-2.115,6.08-3.469c0.23,1.335,0.763,2.641,3.385,2.389c0.673-0.065,1.09-0.308,1.583-0.491l-0.207-2.152
	c-0.331,0.1-0.693,0.202-0.963,0.228c-0.604,0.058-1.004-0.208-1.075-0.948l-0.973-10.12c-0.433-4.505-5.582-4.417-6.995-4.281
	c-4.337,0.417-6.969,2.333-6.7,6.549l2.723-0.262c0.073-1.365,0.347-3.46,3.709-3.784c2.791-0.268,4.233,0.611,4.41,2.46
	C410.987,1048.931,410.172,1049.281,409.472,1049.417z M411.395,1053.88c0.226,2.354-2.292,4.394-5.049,4.659
	c-2.219,0.213-3.304-0.836-3.488-2.753c-0.213-2.219,2.064-2.879,3.491-3.219c3.62-0.823,4.333-1.163,4.768-1.578L411.395,1053.88z"
	/>
<path fill="#FFFFFF" d="M422.634,1063.523c-0.807,0.078-1.427-0.032-1.811-0.131l0.259,2.69c0.484,0.089,0.833,0.192,1.269,0.15
	c3.8-0.365,4.064-0.798,6.169-8.194c1.699-5.966,3.165-11.91,4.662-17.856l-3.261,0.314l-3.33,14.775l-0.067,0.006l-6.05-13.873
	l-3.362,0.323l8.258,17.428C424.307,1062.921,424.181,1063.374,422.634,1063.523z"/>
<g id="Wifi_1_" transform="translate(886.836 6.99)">
	<defs>
		<path id="SVGID_1_" d="M581.445,56.353c4.007-0.346,7.995,0.86,11.138,3.371c0.237,0.194,0.587,0.161,0.783-0.074l1.908-2.291
			c0.099-0.119,0.147-0.273,0.133-0.428c-0.014-0.155-0.09-0.297-0.209-0.396c-8.254-6.646-20.28-5.607-27.272,2.357
			c-0.101,0.118-0.151,0.271-0.139,0.426c0.012,0.155,0.086,0.299,0.205,0.399l2.274,1.93c0.234,0.198,0.584,0.171,0.784-0.062
			C573.716,58.573,577.437,56.7,581.445,56.353z M582.038,63.218c2.202-0.19,4.396,0.444,6.155,1.781
			c0.239,0.191,0.586,0.156,0.783-0.078l1.906-2.291c0.1-0.12,0.148-0.275,0.133-0.431c-0.015-0.156-0.092-0.299-0.214-0.398
			c-5.37-4.194-13.067-3.528-17.637,1.525c-0.103,0.118-0.154,0.273-0.142,0.429c0.012,0.156,0.086,0.301,0.206,0.402l2.27,1.93
			c0.234,0.197,0.582,0.171,0.785-0.058C577.787,64.411,579.838,63.409,582.038,63.218z M586.485,67.909
			c0.102-0.119,0.151-0.275,0.134-0.431c-0.017-0.156-0.097-0.298-0.222-0.393c-2.475-1.752-5.854-1.46-7.992,0.691
			c-0.107,0.115-0.162,0.269-0.152,0.426c0.01,0.157,0.084,0.303,0.206,0.403l3.928,3.333c0.238,0.203,0.595,0.174,0.798-0.064
			c0.001-0.002,0.003-0.003,0.004-0.005L586.485,67.909z"/>
	</defs>
	<use xlink:href="#SVGID_1_"  overflow="visible" fill="#FFFFFF"/>
	<clipPath id="SVGID_2_">
		<use xlink:href="#SVGID_1_"  overflow="visible"/>
	</clipPath>
	<g id="Wifi-2_1_" transform="translate(0 0)" clip-path="url(#SVGID_2_)">
		<path id="Fill-4_1_" fill="#FFFFFF" d="M557.452,45.168l45.707-3.951l3.277,37.916l-45.707,3.951L557.452,45.168z"/>
	</g>
</g>
<g id="Cellular_Connection_1_" transform="translate(820.773 7.998)">
	<defs>
		<path id="SVGID_3_" d="M530.344,69.38l1.809-0.156c0.999-0.086,1.879,0.654,1.965,1.653l0.313,3.618
			c0.086,0.999-0.654,1.879-1.653,1.965l-1.809,0.156c-0.999,0.086-1.879-0.654-1.965-1.653l-0.313-3.618
			C528.605,70.346,529.345,69.466,530.344,69.38z M538.473,65.032l1.809-0.156c0.999-0.086,1.879,0.654,1.965,1.653l0.625,7.236
			c0.086,0.999-0.654,1.879-1.653,1.965l-1.809,0.156c-0.999,0.086-1.879-0.654-1.965-1.653l-0.625-7.236
			c-0.086-0.998,0.653-1.876,1.65-1.964L538.473,65.032z M546.55,60.082l1.809-0.156c0.999-0.086,1.879,0.654,1.965,1.653
			l0.99,11.456c0.086,0.999-0.654,1.879-1.653,1.965l-1.809,0.156c-0.999,0.086-1.879-0.654-1.965-1.653l-0.99-11.454
			c-0.086-0.997,0.651-1.875,1.648-1.964L546.55,60.082z M554.627,55.131l1.809-0.156c0.999-0.086,1.879,0.654,1.965,1.653
			l1.355,15.677c0.086,0.999-0.654,1.879-1.653,1.965l-1.809,0.156c-0.999,0.086-1.879-0.654-1.965-1.653l-1.355-15.674
			c-0.086-0.999,0.654-1.879,1.653-1.965L554.627,55.131z"/>
	</defs>
	<use xlink:href="#SVGID_3_"  overflow="visible" fill="#FFFFFF"/>
	<clipPath id="SVGID_4_">
		<use xlink:href="#SVGID_3_"  overflow="visible"/>
	</clipPath>
	<g id="Cellular_Connection-2_1_" transform="translate(0 0)" clip-path="url(#SVGID_4_)">
		<path id="Fill-5_1_" fill="#FFFFFF" d="M517.669,49.219l48.829-4.221l3.231,37.375L520.9,86.594L517.669,49.219z"/>
	</g>
</g>
<path id="_Time_1_" fill="#FFFFFF" d="M64.255,120.429c4.537-0.392,6.926-4.173,6.406-10.181c-0.101-1.962-0.703-3.865-1.748-5.528
	c-1.289-2.13-3.705-3.309-6.177-3.016c-3.882,0.336-6.401,3.181-6.084,6.841c0.149,3.163,2.833,5.607,5.996,5.458
	c0.13-0.006,0.26-0.017,0.389-0.032c1.939-0.073,3.657-1.273,4.393-3.069l0.21-0.018c0.353,4.08-0.983,6.646-3.591,6.871
	c-1.415,0.198-2.783-0.592-3.319-1.917l-3.176,0.275C58.34,118.998,60.992,120.711,64.255,120.429z M63.584,111.37
	c-1.854,0.239-3.551-1.071-3.79-2.925c-0.011-0.089-0.019-0.179-0.024-0.269c-0.155-1.948,1.298-3.652,3.245-3.808
	c1.948-0.155,3.652,1.298,3.808,3.245c0.198,1.868-1.156,3.542-3.024,3.74C63.728,111.361,63.656,111.367,63.584,111.37z
	 M76.894,116.995c1.078-0.107,1.865-1.067,1.758-2.144c-0.107-1.078-1.067-1.865-2.144-1.758c-1.069,0.106-1.853,1.051-1.761,2.121
	c0.058,1.049,0.955,1.853,2.005,1.795C76.799,117.005,76.846,117.001,76.894,116.995z M76.092,107.722
	c1.045-0.039,1.86-0.917,1.822-1.962c-0.002-0.05-0.006-0.1-0.012-0.15c-0.114-1.091-1.09-1.883-2.181-1.77
	c-1.064,0.111-1.849,1.044-1.776,2.112c0.062,1.048,0.962,1.847,2.01,1.784c0.046-0.003,0.091-0.007,0.136-0.013L76.092,107.722z
	 M91.368,117.649l3.054-0.264l-0.287-3.324l2.412-0.208l-0.233-2.697l-2.412,0.208L92.88,99.546l-4.5,0.389
	c-2.742,5.019-4.909,9.205-6.26,12.299l0.246,2.845l8.716-0.753L91.368,117.649z M85.077,112.015c1.76-3.839,3.362-6.929,4.85-9.599
	l0.173-0.015l0.804,9.297l-5.81,0.502L85.077,112.015z M104.146,116.545l3.19-0.276l-1.542-17.839l-3.178,0.275l-4.378,3.666
	l0.265,3.066l4.169-3.499l0.21-0.018L104.146,116.545z"/>
<text transform="matrix(0.9948 -0.1021 0.1021 0.9948 289.3522 546.1854)" fill="#FFFFFF" font-family="'Helvetica'" font-size="117.2904"> 25</text>
<path fill="#FFFFFF" d="M294.288,548.737l-5.126,0.529l-0.575-5.57l-7.098,0.733l-0.54-5.225c0,0,10.986-1.184,13.451-1.439
	s3.984-2.902,2.957-6.582c-1.028-3.68-5.161-2.705-6.295-2.588c-1.134,0.117-3.45,0.356-5.432,0.461s-8.98-0.611-9.81-8.651
	c-0.789-7.64,6.731-10.558,9.304-10.725l-0.58-5.619l5.077-0.524l0.575,5.57l7.048-0.728l0.529,5.126c0,0-10.844,1.12-13.308,1.374
	c-2.464,0.255-3.692,3.32-3.483,5.341s1.945,3.884,5.198,3.548c3.253-0.336,4.436-0.458,6.96-0.619
	c2.524-0.161,8.654,1.796,9.64,7.971c0.986,6.175-2.587,11.127-9.068,12.045L294.288,548.737z"/>
<g>
	<g id="Subtraction_2" transform="translate(128 2234)">
		<path fill="none" d="M110.183-936.224l-21.575,2.189c-1.985,0.199-3.757-1.246-3.961-3.231l-1.79-17.636l13.462-10.535
			l15.304,7.616l1.79,17.636C113.613-938.2,112.168-936.428,110.183-936.224z M95.866-947.746c-0.284,0.029-0.49,0.282-0.462,0.566
			l0.573,5.651c0.029,0.284,0.282,0.49,0.566,0.462l4.452-0.452c0.284-0.029,0.49-0.282,0.462-0.566l-0.573-5.651
			c-0.029-0.284-0.282-0.49-0.566-0.462L95.866-947.746z"/>
		<path fill="#707377" d="M110.027-937.765c1.133-0.115,1.961-1.13,1.846-2.263l-1.704-16.787l-13.664-6.799l-12.02,9.406
			l1.704,16.787c0.115,1.133,1.13,1.961,2.263,1.846L110.027-937.765 M95.71-949.287l4.452-0.452
			c1.133-0.115,2.148,0.713,2.263,1.846l0.573,5.65c0.115,1.133-0.713,2.148-1.846,2.263l-4.452,0.452
			c-1.133,0.115-2.148-0.713-2.263-1.846l-0.573-5.65C93.749-948.157,94.577-949.172,95.71-949.287 M110.183-936.224l-21.575,2.189
			c-1.983,0.201-3.76-1.248-3.961-3.231l-1.79-17.637l13.462-10.535l15.304,7.615l1.79,17.637
			C113.615-938.202,112.166-936.425,110.183-936.224z M95.866-947.746c-0.283,0.029-0.49,0.283-0.462,0.566l0.573,5.65
			c0.029,0.283,0.283,0.49,0.566,0.461l4.452-0.452c0.283-0.029,0.49-0.283,0.462-0.566l-0.573-5.65
			c-0.029-0.283-0.283-0.49-0.566-0.461L95.866-947.746z"/>
	</g>
	<g id="Group_41_1_" transform="translate(-750.5 723.5)">
		
			<line id="Line_4_1_" fill="none" stroke="#707070" stroke-width="4" stroke-linecap="round" x1="1305.62" y1="519.009" x2="1307.914" y2="541.62"/>
		
			<line id="Line_5_1_" fill="none" stroke="#707070" stroke-width="4" stroke-linecap="round" x1="1296.886" y1="530.82" x2="1298.083" y2="542.618"/>
		
			<line id="Line_6_1_" fill="none" stroke="#707070" stroke-width="4" stroke-linecap="round" x1="1285.873" y1="510.383" x2="1289.235" y2="543.516"/>
		
			<line id="Line_7_1_" fill="none" stroke="#707070" stroke-width="4" stroke-linecap="round" x1="1277.309" y1="523.868" x2="1279.405" y2="544.513"/>
	</g>
	<g id="Group_42_1_" transform="translate(181.103 -72.864)">
		<g id="Ellipse_3_1_" transform="translate(773 2311.864)">
			<circle fill="none" cx="-311.32" cy="-1005.119" r="7.745"/>
			<circle fill="none" stroke="#707070" stroke-width="3" stroke-linecap="round" cx="-311.32" cy="-1005.119" r="6.97"/>
		</g>
		<path id="Path_3_1_" fill="none" stroke="#707070" stroke-width="3" stroke-linecap="round" d="M449.415,1329.585
			c0,0,0.656-13.485,12.916-14.729c12.26-1.244,15.594,11.836,15.594,11.836"/>
	</g>
	<g id="Group_43_1_" transform="translate(16 -38)">
		<g id="Rectangle_1629_1_" transform="translate(310 2280)">
			<path fill="none" d="M-10.601-981.123l27.739-2.815c1.986-0.202,3.759,1.245,3.961,3.231l2.085,20.548
				c0.202,1.986-1.245,3.759-3.231,3.961l-27.739,2.815c-1.986,0.202-3.759-1.245-3.961-3.231l-2.085-20.547
				C-14.033-979.148-12.587-980.921-10.601-981.123z"/>
			<path fill="none" stroke="#707070" stroke-width="3" d="M-10.522-980.352l27.739-2.815c1.56-0.158,2.954,0.978,3.112,2.539
				l2.085,20.547c0.158,1.56-0.978,2.954-2.539,3.112l-27.739,2.815c-1.56,0.158-2.954-0.978-3.112-2.539l-2.085-20.547
				C-13.219-978.801-12.083-980.194-10.522-980.352z"/>
		</g>
		<line id="Line_8_1_" fill="none" stroke="#707070" stroke-width="3" x1="296.874" y1="1306.359" x2="331.115" y2="1302.884"/>
		<g id="Rectangle_1630_1_" transform="translate(359 2302)">
			<path fill="none" d="M-33.283-994.376l6.164-0.626l0,0l0.886,8.733l0,0l-6.164,0.626c-1.986,0.202-3.759-1.245-3.961-3.231
				l-0.156-1.541C-36.716-992.401-35.269-994.175-33.283-994.376z"/>
			<path fill="none" stroke="#707070" stroke-width="3" d="M-33.205-993.606l4.623-0.469c0.426-0.043,0.806,0.267,0.849,0.692
				l0.573,5.651c0.043,0.426-0.267,0.806-0.692,0.849l-4.623,0.469c-1.56,0.158-2.954-0.978-3.112-2.539l-0.156-1.541
				C-35.902-992.054-34.765-993.447-33.205-993.606z"/>
		</g>
	</g>
</g>
<path fill="#FFFFFF" d="M423.058,1243.867l-4.07,0.42l-0.457-4.422l-5.635,0.582l-0.428-4.148c0,0,8.722-0.94,10.679-1.142
	c1.957-0.202,3.163-2.304,2.347-5.226c-0.816-2.922-4.098-2.148-4.998-2.055c-0.9,0.093-2.739,0.283-4.313,0.366
	c-1.573,0.083-7.129-0.485-7.789-6.868c-0.626-6.066,5.344-8.383,7.387-8.515l-0.461-4.461l4.031-0.416l0.457,4.422l5.596-0.578
	l0.42,4.07c0,0-8.609,0.889-10.566,1.091s-2.931,2.636-2.766,4.241c0.166,1.604,1.544,3.083,4.127,2.817
	c2.583-0.267,3.522-0.364,5.526-0.492c2.004-0.128,6.871,1.426,7.654,6.328c0.783,4.902-2.054,8.834-7.199,9.563L423.058,1243.867z"
	/>
</svg>
