<svg xmlns="http://www.w3.org/2000/svg" width="53.484" height="53.516" viewBox="0 0 53.484 53.516">
  <defs>
    <style>
      .cls-1 {
        opacity: 0.939;
        isolation: isolate;
      }
    </style>
  </defs>
  <g id="Group_559" data-name="Group 559" transform="translate(-340.254 -2239.266)">
    <g id="Group_423" data-name="Group 423" class="cls-1" transform="translate(-110.974 2028.322)">
      <path id="Path_6" data-name="Path 6" d="M501.194,252.337c-.034,1.824-.168,3.627-.365,5.427-.058.535-.181,1.057-.253,1.588a.812.812,0,0,1-.985.61.881.881,0,0,1-.609-.965,39.558,39.558,0,0,0,.512-4.906,36.865,36.865,0,0,0-.1-4.969,25.919,25.919,0,0,0-1.261-6.9,11.768,11.768,0,0,0-4.053-5.367,12.114,12.114,0,0,0-12.2-1.413,11.716,11.716,0,0,0-4.061,2.924,12.2,12.2,0,0,0-3.148,7.213,13.681,13.681,0,0,0,.263,3.652,14.577,14.577,0,0,1,.182,4.876.778.778,0,0,1-.876.751.761.761,0,0,1-.709-.9,15.017,15.017,0,0,0-.159-4.152,15.7,15.7,0,0,1-.38-3.33,13.808,13.808,0,0,1,5.093-10.6,13.749,13.749,0,0,1,15.872-1.084,13.655,13.655,0,0,1,3.243,2.74,14.148,14.148,0,0,1,3.273,7.16A51.9,51.9,0,0,1,501.194,252.337Z" transform="translate(-8.832 -8.851)"/>
      <path id="Path_7" data-name="Path 7" d="M471.322,227.3a19.062,19.062,0,0,0-2.137,1.886,17.712,17.712,0,0,0-3.5,5.046,19,19,0,0,0-1.461,4.629.824.824,0,0,1-.742.764.846.846,0,0,1-.823-.488.887.887,0,0,1-.05-.582,20.235,20.235,0,0,1,28.138-14.96,21.521,21.521,0,0,1,4.358,2.624,20.062,20.062,0,0,1,7.241,11.552c.212.926.376,1.862.515,2.8a.833.833,0,0,1-.644,1.032.812.812,0,0,1-.966-.776,31.7,31.7,0,0,0-.671-3.436,18.352,18.352,0,0,0-3.757-7.244,19.54,19.54,0,0,0-2.856-2.719,18.5,18.5,0,0,0-6.058-3.144,17.927,17.927,0,0,0-6.471-.759A18.838,18.838,0,0,0,471.322,227.3Z" transform="translate(-4.609 -4.427)"/>
      <path id="Path_8" data-name="Path 8" d="M479.349,216.433a21.433,21.433,0,0,1,2.92.149,2.224,2.224,0,0,1,.31.056.806.806,0,0,1,.626.979.773.773,0,0,1-.9.63,20.564,20.564,0,0,0-4.054-.162,21.093,21.093,0,0,0-5.562,1.02,21.611,21.611,0,0,0-7.741,4.378,23.3,23.3,0,0,0-2.175,2.224,21.226,21.226,0,0,0-2.124,2.948,21.469,21.469,0,0,0-2.838,7.634,20.852,20.852,0,0,0,.076,7.591,7.982,7.982,0,0,1-.063,3.772,7.074,7.074,0,0,1-1.683,3.026.81.81,0,0,1-1.166.038.792.792,0,0,1-.029-1.136,6.156,6.156,0,0,0,1.218-2.068,5.583,5.583,0,0,0,.178-2.97,23.163,23.163,0,0,1,.168-10.071,23.61,23.61,0,0,1,3.44-7.768,24.449,24.449,0,0,1,2.246-2.858A22.682,22.682,0,0,1,466,220.578a23.32,23.32,0,0,1,8.055-3.559A20.368,20.368,0,0,1,479.349,216.433Z" transform="translate(-1.417 -2.223)"/>
      <path id="Path_9" data-name="Path 9" d="M498.044,257.157a33.528,33.528,0,0,1-.651,8.5,32.9,32.9,0,0,1-2.9,8.307,34.2,34.2,0,0,1-3.374,5.355.886.886,0,0,1-.89.433.8.8,0,0,1-.486-1.3c.492-.694,1.014-1.367,1.482-2.079a34.787,34.787,0,0,0,1.761-3.061,30.311,30.311,0,0,0,2.387-6.193,32.127,32.127,0,0,0,.925-5.163,29.114,29.114,0,0,0,.131-3.988,29.982,29.982,0,0,0-.654-5.377,2.419,2.419,0,0,0-4.724,1.029,27.607,27.607,0,0,1,.5,6.966,23.21,23.21,0,0,1-.545,3.949.814.814,0,0,1-.784.679.827.827,0,0,1-.8-.612.763.763,0,0,1-.007-.413,24.636,24.636,0,0,0,.516-4.057,23.952,23.952,0,0,0-.5-6.156,4.074,4.074,0,1,1,8.033-1.359c.114.679.245,1.356.33,2.038C497.9,255.482,497.963,256.32,498.044,257.157Z" transform="translate(-15.466 -15.488)"/>
      <path id="Path_10" data-name="Path 10" d="M524.45,246.463a47.014,47.014,0,0,1-.357,6.288.888.888,0,0,1-.588.869.773.773,0,0,1-.833-.221.848.848,0,0,1-.213-.714c.079-.883.173-1.765.242-2.649a48.139,48.139,0,0,0,.087-5.671c-.046-1.152-.121-2.3-.258-3.452a30.225,30.225,0,0,0-2.238-9.286,21.214,21.214,0,0,0-2.6-4.306,10.071,10.071,0,0,0-1.146-1.3c-.575-.513-1.048-1.117-1.6-1.646a14.937,14.937,0,0,0-1.621-1.317c-.663-.481-1.338-.932-2.038-1.351a20.019,20.019,0,0,0-3.748-1.723c-.2-.069-.4-.133-.59-.22a.786.786,0,0,1-.417-1.052.808.808,0,0,1,1.006-.471,25.239,25.239,0,0,1,4.412,1.948,23.54,23.54,0,0,1,5.56,4.384,23.987,23.987,0,0,1,3.427,4.712,23.307,23.307,0,0,1,2.042,4.9,34.006,34.006,0,0,1,.9,4.424c.219,1.43.355,2.872.469,4.313A31.315,31.315,0,0,1,524.45,246.463Z" transform="translate(-22.412 -2.944)"/>
      <path id="Path_11" data-name="Path 11" d="M484.76,239.894a8.469,8.469,0,0,0-5.6,2.009,8.865,8.865,0,0,0-3.224,6.158,12.175,12.175,0,0,0,.311,3.3,20.19,20.19,0,0,1-.457,8.535,14.952,14.952,0,0,1-.61,1.955,20.937,20.937,0,0,1-5.432,7.823c-.077.071-.157.14-.239.206a.781.781,0,0,1-1.131-.025.824.824,0,0,1,.081-1.215,18.613,18.613,0,0,0,3.812-4.6,20.015,20.015,0,0,0,1.958-4.65,19.3,19.3,0,0,0,.6-6.031c-.069-1.124-.333-2.214-.471-3.323a10.581,10.581,0,0,1,3.341-9.042,10.436,10.436,0,0,1,5.3-2.607,11.306,11.306,0,0,1,2.579-.137.838.838,0,0,1,.823.833.829.829,0,0,1-.869.815Z" transform="translate(-6.864 -11.069)"/>
      <path id="Path_12" data-name="Path 12" d="M508.975,264.518a35.759,35.759,0,0,1-1.585,5.091,43.284,43.284,0,0,1-2.737,5.712c-.389.672-1.113.77-1.486.186a.789.789,0,0,1,.005-.89,37.059,37.059,0,0,0,2.857-6.041,38.942,38.942,0,0,0,2.055-8.456,39.454,39.454,0,0,0,.251-6.5,31.746,31.746,0,0,0-.852-6.341,8.55,8.55,0,0,0-2.04-3.7,9.179,9.179,0,0,0-2.1-1.675c-.514-.313-.677-.765-.423-1.193.27-.455.738-.528,1.276-.2a10.637,10.637,0,0,1,5.153,7.639,41.711,41.711,0,0,1,.642,8.154A40.217,40.217,0,0,1,508.975,264.518Z" transform="translate(-20.925 -11.91)"/>
      <path id="Path_13" data-name="Path 13" d="M480.257,210.971a26.206,26.206,0,0,1,12.782,2.678.811.811,0,0,1,.261,1.4.864.864,0,0,1-.97.071c-.546-.265-1.1-.513-1.662-.739a24.905,24.905,0,0,0-16.392-.762,24.128,24.128,0,0,0-5.91,2.6,25.4,25.4,0,0,0-3.992,3,24.323,24.323,0,0,0-2.444,2.627c-.27.335-.551.662-.811,1.006a.832.832,0,0,1-1.15.224.774.774,0,0,1-.189-1.139,21.011,21.011,0,0,1,2.06-2.517,26.737,26.737,0,0,1,15.667-8.194A24.916,24.916,0,0,1,480.257,210.971Z" transform="translate(-3.401)"/>
      <path id="Path_14" data-name="Path 14" d="M522.012,248.628a20.062,20.062,0,0,0-2.5-7.995c-.158-.259-.312-.52-.479-.774a.636.636,0,0,0-.9-.176l-.33.229a.633.633,0,0,0-.154.893l0,.005a12.86,12.86,0,0,1,2.064,4.53,40.713,40.713,0,0,1,1.113,8.982,44.478,44.478,0,0,1-.425,6.942c-.175,1.332-.426,2.651-.731,3.96a45.782,45.782,0,0,1-1.638,5.428,3.459,3.459,0,0,0-.147.467.775.775,0,0,0,.509.921.809.809,0,0,0,1.015-.452c.405-1.02.745-2.063,1.069-3.113a45.586,45.586,0,0,0,1.526-19.849Z" transform="translate(-26.899 -11.614)"/>
      <path id="Path_15" data-name="Path 15" d="M469.818,234.581q.2-.209.409-.413c.247-.244.556-.67.9-.766a.967.967,0,0,1,1.015.371.826.826,0,0,1-.267,1.165,15.145,15.145,0,0,0-3.547,4.207,15.545,15.545,0,0,0-2.034,8.443,27.845,27.845,0,0,0,.435,3.012,13.442,13.442,0,0,1-1.249,8.037,13.26,13.26,0,0,1-3.721,4.662.789.789,0,0,1-1.176-.07.832.832,0,0,1,.2-1.224,12.434,12.434,0,0,0,3.125-3.865,12.119,12.119,0,0,0,1.344-5.387,12.976,12.976,0,0,0-.284-2.78,16.439,16.439,0,0,1,.493-8.329,16.881,16.881,0,0,1,2.24-4.5,20.315,20.315,0,0,1,1.605-2.01Q469.556,234.851,469.818,234.581Z" transform="translate(-3.718 -9.099)"/>
      <path id="Path_16" data-name="Path 16" d="M492.512,260.891a30.229,30.229,0,0,1-3.41,14.2,29.743,29.743,0,0,1-3.991,5.82.853.853,0,0,1-.846.381.808.808,0,0,1-.43-1.385,33.2,33.2,0,0,0,2.336-3.058,28.2,28.2,0,0,0,4.142-21.164.82.82,0,0,1,.595-1.029.789.789,0,0,1,.99.649,25.119,25.119,0,0,1,.475,3.148C492.448,259.409,492.483,260.366,492.512,260.891Z" transform="translate(-13.129 -17.725)"/>
      <path id="Path_17" data-name="Path 17" d="M532.572,240.436c0,.316,0,.631,0,.946a.813.813,0,0,1-.8.884.853.853,0,0,1-.842-.857c-.018-.478,0-.958-.014-1.437a25.723,25.723,0,0,0-2.775-10.547,24.21,24.21,0,0,0-4.451-6.12,25.4,25.4,0,0,0-3.23-2.775c-.086-.061-.167-.128-.247-.2a.8.8,0,0,1-.163-1.1.764.764,0,0,1,1.11-.207c.466.31.916.645,1.353.994a26.771,26.771,0,0,1,6.565,7.673,26.257,26.257,0,0,1,2.282,5.3,28.163,28.163,0,0,1,1.176,6.285c.028.383,0,.77,0,1.156Z" transform="translate(-27.861 -3.218)"/>
      <path id="Path_18" data-name="Path 18" d="M491.779,243.669a7.152,7.152,0,0,1,5.734,3.42,7.836,7.836,0,0,1,1.088,3.038,37.971,37.971,0,0,1,.6,6.406.847.847,0,0,1-.449.875.79.79,0,0,1-1.139-.5,1.7,1.7,0,0,1-.05-.45,32.874,32.874,0,0,0-.731-6.776,5.676,5.676,0,0,0-10.417-1.558,4.867,4.867,0,0,0-.638,1.622.78.78,0,0,1-.678.7.8.8,0,0,1-.921-1.02,7.132,7.132,0,0,1,2.961-4.438A7.594,7.594,0,0,1,491.779,243.669Z" transform="translate(-13.358 -13.276)"/>
      <path id="Path_19" data-name="Path 19" d="M481.636,262.818a23.573,23.573,0,0,1-7.366,17.372.814.814,0,0,1-1.378-.146.871.871,0,0,1,.249-1.045,21.442,21.442,0,0,0,3.371-4.054,21.846,21.846,0,0,0,3.315-9.107,22.862,22.862,0,0,0,0-5.588.791.791,0,0,1,.688-.99.812.812,0,0,1,.912.787A17.1,17.1,0,0,1,481.636,262.818Z" transform="translate(-8.755 -19.6)"/>
      <path id="Path_20" data-name="Path 20" d="M452.813,254.407a.811.811,0,0,1-.809-.692,26.32,26.32,0,0,1-.618-3.337,28.74,28.74,0,0,1-.137-4.23,25.028,25.028,0,0,1,.889-5.765,23.253,23.253,0,0,1,.787-2.463,21.869,21.869,0,0,1,1.272-2.8.806.806,0,0,1,.948-.325.786.786,0,0,1,.533.879,1.733,1.733,0,0,1-.164.459,24.668,24.668,0,0,0-1.945,17.128A.835.835,0,0,1,452.813,254.407Z" transform="translate(0 -9.66)"/>
      <path id="Path_21" data-name="Path 21" d="M500.928,232.509a9.339,9.339,0,0,1-.847-.616,15.285,15.285,0,0,0-7.707-2.884,15.541,15.541,0,0,0-7.716,1.318.737.737,0,0,1-1.111-.362.836.836,0,0,1,.44-1.14,18.224,18.224,0,0,1,5.883-1.47,17.038,17.038,0,0,1,8.156,1.455,21.7,21.7,0,0,1,2.355,1.283,13.728,13.728,0,0,1,1.365,1.019.809.809,0,0,1-.161,1.458A.62.62,0,0,1,500.928,232.509Z" transform="translate(-13.075 -6.64)"/>
      <path id="Path_22" data-name="Path 22" d="M503.049,271.168a.806.806,0,0,1,.818.95,38.117,38.117,0,0,1-1.254,6.1A36.6,36.6,0,0,1,497.8,288.4c-.385.577-.914.649-1.344.207a.742.742,0,0,1-.087-.99,34.1,34.1,0,0,0,2.767-4.827,34.823,34.823,0,0,0,3-10.1c.037-.278.062-.558.116-.832A.759.759,0,0,1,503.049,271.168Z" transform="translate(-18.254 -24.432)"/>
      <path id="Path_23" data-name="Path 23" d="M529.091,262.819a50.294,50.294,0,0,1-1.538,12.419c-.052.2-.091.412-.163.608a.8.8,0,0,1-1.556-.395c.049-.31.138-.615.214-.92a46.793,46.793,0,0,0,1.261-7.9c.121-1.668.133-3.334.115-5,0-.49-.054-.978-.062-1.468a.783.783,0,0,1,.776-.889.847.847,0,0,1,.86.874C529.023,261.146,529.136,262.147,529.091,262.819Z" transform="translate(-30.262 -19.605)"/>
      <path id="Path_24" data-name="Path 24" d="M462.373,261.735a10.575,10.575,0,0,1-3.647,7.982.812.812,0,0,1-1.189.018.833.833,0,0,1,.128-1.255A8.839,8.839,0,0,0,460.739,262a12.566,12.566,0,0,0-.321-2.844,18.218,18.218,0,0,1-.239-2.33.819.819,0,1,1,1.63-.053,23.052,23.052,0,0,0,.427,3.222A8.514,8.514,0,0,1,462.373,261.735Z" transform="translate(-2.466 -18.24)"/>
      <path id="Path_25" data-name="Path 25" d="M485.179,280.972a1.288,1.288,0,0,1-.128.541,28.046,28.046,0,0,1-4.674,7.653c-.294.346-.606.678-.922,1.006a.919.919,0,0,1-.953.294.767.767,0,0,1-.551-.623c-.087-.373.139-.62.37-.858a23.809,23.809,0,0,0,1.843-2.155,25.8,25.8,0,0,0,3.446-6.111.8.8,0,0,1,1.57.253Z" transform="translate(-10.833 -28.08)"/>
      <path id="Path_26" data-name="Path 26" d="M468.026,276.563a17.379,17.379,0,0,0,.86-1.8.822.822,0,0,1,.788-.588.868.868,0,0,1,.787.546.457.457,0,0,1,.008.332,7.9,7.9,0,0,1-.721,1.741c-.285.587-.65,1.132-.962,1.7a10.093,10.093,0,0,1-.868,1.169c-.305.411-.647.8-.992,1.176a19.191,19.191,0,0,1-1.473,1.386.833.833,0,1,1-1.054-1.252A15.311,15.311,0,0,0,468.026,276.563Z" transform="translate(-5.179 -25.654)"/>
      <path id="Path_27" data-name="Path 27" d="M514.139,282.629a.8.8,0,0,1,.766,1.043c-.2.876-.475,1.734-.764,2.584a42.362,42.362,0,0,1-1.994,4.894,1.306,1.306,0,0,1-.329.49.806.806,0,0,1-1.243-.948c.36-.836.758-1.656,1.1-2.5.389-.96.76-1.929,1.08-2.914.168-.517.322-1.039.457-1.566C513.354,283.153,513.421,282.632,514.139,282.629Z" transform="translate(-24.049 -29.082)"/>
      <path id="Path_28" data-name="Path 28" d="M477.475,230.93l.084-.067Z" transform="translate(-10.648 -8.081)"/>
      <path id="Path_29" data-name="Path 29" d="M477.36,231.061l.068-.083Z" transform="translate(-10.601 -8.128)"/>
    </g>
  </g>
</svg>
