<?xml version="1.0" standalone="no"?>
<!DOCTYPE svg PUBLIC "-//W3C//DTD SVG 20010904//EN"
 "http://www.w3.org/TR/2001/REC-SVG-20010904/DTD/svg10.dtd">
<svg version="1.0" xmlns="http://www.w3.org/2000/svg"
 width="1051.000000pt" height="1037.000000pt" viewBox="0 0 1051.000000 1037.000000"
 preserveAspectRatio="xMidYMid meet">

<g transform="translate(0.000000,1037.000000) scale(0.100000,-0.100000)"
fill="#000000" stroke="none">
<path d="M1725 10204 c-492 -76 -876 -325 -1152 -746 -141 -214 -225 -455
-253 -725 -7 -67 -10 -1231 -8 -3623 l3 -3525 27 -121 c79 -353 228 -618 484
-864 147 -141 268 -225 439 -305 159 -75 336 -123 530 -145 58 -6 1289 -10
3517 -10 3732 0 3529 -3 3753 55 291 76 516 206 736 425 69 69 155 167 192
219 133 187 233 424 279 662 l22 114 4 3495 c2 2494 0 3527 -8 3605 -37 369
-170 681 -402 943 -244 275 -542 449 -913 534 l-100 23 -3530 1 c-2977 2
-3544 0 -3620 -12z m7100 -736 c362 -85 614 -327 707 -678 l23 -85 0 -3520 0
-3520 -23 -89 c-84 -330 -324 -573 -660 -669 l-77 -22 -3453 -3 -3453 -2 -102
21 c-357 72 -623 325 -713 679 -19 73 -19 160 -19 3605 l0 3530 27 98 c74 268
252 472 519 596 95 44 158 60 268 71 42 4 1608 7 3481 6 3116 -2 3411 -3 3475
-18z"/>
<path d="M4930 8080 c0 -225 -1 -410 -2 -410 -278 -23 -418 -47 -548 -92 -212
-75 -365 -172 -525 -333 -205 -205 -331 -441 -392 -735 -27 -128 -24 -392 5
-527 106 -491 442 -882 895 -1042 211 -74 401 -90 1103 -91 345 0 388 -2 458
-20 345 -88 538 -390 496 -775 -20 -174 -75 -298 -185 -410 -72 -74 -153 -124
-260 -162 l-80 -28 -1005 -5 -1005 -5 -3 -367 -2 -368 525 0 525 0 0 -415 0
-415 370 0 370 0 0 414 0 413 133 6 c234 10 426 59 610 154 224 116 428 315
569 557 139 237 205 544 179 833 -36 401 -168 695 -424 940 -210 200 -454 324
-737 374 -105 19 -164 21 -675 23 -487 3 -570 5 -640 20 -195 43 -341 161
-435 351 -52 106 -70 183 -70 297 0 110 17 182 64 275 72 145 167 243 297 308
144 73 72 69 1182 72 l997 4 0 369 0 370 -525 0 -525 0 -2 413 -3 412 -367 3
-368 2 0 -410z"/>
</g>
</svg>
