<?xml version="1.0" encoding="utf-8"?>
<!-- Generator: Adobe Illustrator 17.0.0, SVG Export Plug-In . SVG Version: 6.00 Build 0)  -->
<!DOCTYPE svg PUBLIC "-//W3C//DTD SVG 1.1//EN" "http://www.w3.org/Graphics/SVG/1.1/DTD/svg11.dtd">
<svg version="1.1" id="Layer_1" xmlns="http://www.w3.org/2000/svg" xmlns:xlink="http://www.w3.org/1999/xlink" x="0px" y="0px"
	 width="646.537px" height="864px" viewBox="0 0 646.537 864" enable-background="new 0 0 646.537 864" xml:space="preserve">
<g>
	<path fill="#A9AAAA" d="M484.87,428.148c-10.334-15.386-8.106-37.68-8.106-49.434c0-2.033,0.038-5.403,0.094-9.752h-278.63
		c-0.085,4.019-0.169,7.909-0.252,11.628l227.666-0.617L484.87,428.148z"/>
	<path fill="#A9AAAA" d="M646.487,482.844c-0.852-30.093-50.11-73.751-59.717-81.987l-2.887,19.383c0,0,0.265,0.241,0.712,0.653
		c0.809-1.359,1.545-2.73,2.119-4.114c-0.574,1.384-1.31,2.754-2.119,4.114c5.718,5.267,45.198,42.173,46.948,58.805
		c1.888,17.932-9.438,352.029-13.213,355.804c-3.775,3.775-235,13.685-324.187,12.269S30.358,835.974,30.358,835.974L13.842,468.373
		l71.424-60.365c-0.218-2.356-0.169-3.812-0.169-3.812s-0.05,1.456,0.169,3.812l1.719-1.453l-0.472-6.606l-9.036-2.065L0,465.542
		c0,0,15.1,346.68,15.1,358.006s0,28.943,38.38,28.943s175.542,9.438,264.257,11.325c88.715,1.888,271.808-11.325,287.537-11.325
		c15.729,0,29.572-4.404,29.572-17.617c0-13.213,0-48.447,0-48.447S647.43,516.191,646.487,482.844z"/>
	<path fill="#999999" d="M86.985,406.556l-1.719,1.453c0.935,10.095,6.808,36.77,42.773,36.77c44.357,0,66.536-6.606,68.424-20.763
		c0.499-3.741,0.998-20.442,1.514-43.426l-4.503,0.012l4.503-0.012c0.083-3.718,0.168-7.608,0.252-11.628h-3.811h3.811
		c1.37-65.143,2.878-166.101,4.84-182.778c2.831-24.066,48.133-68.896,124.578-67.952c76.446,0.944,141.566,25.954,146.757,75.502
		c4.602,43.93,2.9,141.219,2.454,175.228h4.153h-4.153c-0.057,4.35-0.094,7.719-0.094,9.752c0,11.753-2.228,34.048,8.106,49.434
		l6.523,5.306l-6.523-5.306c5.432,8.088,14.334,14.267,28.859,16.002c38.656,4.616,61.926-8.235,70.866-23.256
		c-0.447-0.411-0.712-0.653-0.712-0.653l2.887-19.383c-1.039-0.89-1.629-1.38-1.629-1.38s5.034-153.521,5.034-179.317
		s0-54.11,0-54.11C547.39,13.788,403.15-12.481,267.246,4.507S77.547,130.029,74.244,165.421s5.191,230.753,5.191,230.753
		l-1.958,1.71l9.036,2.065L86.985,406.556z M89.344,156.613c2.262-15.835,12.291-36.63,29.391-57.387
		c4.949-9.597,8.989-14.969,8.989-14.969s-4.04,5.373-8.989,14.969c30.463-36.976,83.456-73.829,155.589-82.292
		C386.948,3.721,478.809,33.292,514.044,67.898c35.234,34.605,61.66,66.064,62.919,100.04c1.258,33.976,0.629,242.236,0,251.044
		c-0.629,8.809-20.763,18.876-47.818,17.932c-5.8-0.202-11-0.788-15.648-1.694c-0.052,2.914-0.082,4.526-0.082,4.526
		s0.03-1.612,0.082-4.526c-17.031-3.323-26.193-11.228-26.193-22.844c0-14.786,1.258-198.193,0.944-218.956
		c-0.168-11.101-10.149-33.528-31.554-52.674c-3.075-0.722-6.016-1.122-8.714-1.122c2.698,0,5.639,0.4,8.714,1.122
		c-17.981-16.083-44.053-29.812-79.143-32.597c1.659,1.166,3.136,2.421,4.365,3.791c-1.228-1.37-2.706-2.625-4.365-3.791
		c-1.271-0.101-2.521-0.227-3.815-0.299c-79.592-4.404-181.52,8.966-183.879,88.243c-2.359,79.277-1.416,224.619-1.416,227.922
		c0,1.372-3.674,3.828-9.861,6.299c0.069,2.844,0.109,4.397,0.109,4.397s-0.039-1.553-0.109-4.397
		c-8.713,3.481-22.45,6.991-38.272,7.543c-14.145,0.494-26.017-3.656-34.162-7.729c0.118,3.759,0.186,5.841,0.186,5.841
		s-0.067-2.082-0.186-5.841c-7.434-3.717-11.769-7.372-11.769-7.372S83.052,200.655,89.344,156.613z"/>
	<path d="M513.729,444.15c-14.525-1.734-23.426-7.914-28.859-16.002l-59.227-48.175l-227.666,0.617
		c-0.516,22.984-1.015,39.684-1.514,43.426c-1.888,14.157-24.066,20.763-68.424,20.763c-35.965,0-41.838-26.675-42.773-36.77
		l-71.424,60.365l16.516,367.601c0,0,174.599,10.382,263.785,11.797s320.412-8.494,324.187-12.269
		c3.775-3.775,15.1-337.872,13.213-355.804c-1.751-16.632-41.231-53.538-46.948-58.805
		C575.655,435.914,552.385,448.765,513.729,444.15z"/>
	<path fill="#E2E2E2" d="M513.414,202.543c-3.326-32.146-33.981-56.456-56.721-61.797c21.405,19.146,31.386,41.573,31.554,52.674
		c0.315,20.763-0.944,204.17-0.944,218.956c0,11.616,9.162,19.521,26.193,22.844C514.026,405.343,516.854,235.793,513.414,202.543z"
		/>
	<path fill="#E2E2E2" d="M106.146,430.129c-1.092-34.635-6.612-213.762-5.477-260.304c0.761-31.211,10.488-55.905,18.066-70.6
		c-17.101,20.757-27.129,41.552-29.391,57.387c-6.292,44.043,5.033,266.145,5.033,266.145S98.713,426.412,106.146,430.129z"/>
	<path fill="#FCFDFF" d="M106.146,430.129c8.145,4.073,20.017,8.222,34.162,7.729c15.821-0.552,29.558-4.062,38.272-7.543
		c-0.662-27.271-4.058-173.655-1.779-215.818c2.517-46.56,20.763-93.119,76.76-106.961c51.793-12.803,103.56-13.752,123.989,0.613
		c35.089,2.785,61.162,16.514,79.143,32.597c22.74,5.341,53.396,29.651,56.721,61.797c3.44,33.25,0.612,202.8,0.082,232.677
		c4.648,0.907,9.847,1.492,15.648,1.694c27.055,0.944,47.189-9.123,47.818-17.932c0.629-8.809,1.258-217.069,0-251.044
		c-1.259-33.976-27.684-65.435-62.919-100.04C478.809,33.292,386.948,3.721,274.324,16.934
		c-72.132,8.462-125.126,45.315-155.589,82.292c-7.578,14.695-17.305,39.389-18.066,70.6
		C99.535,216.367,105.054,395.494,106.146,430.129z"/>
	<path fill="#E2E2E2" d="M253.561,107.536c-55.997,13.842-74.244,60.402-76.76,106.961c-2.279,42.163,1.117,188.547,1.779,215.818
		c6.187-2.471,9.861-4.928,9.861-6.299c0-3.303-0.944-148.645,1.416-227.922c2.359-79.277,104.287-92.647,183.879-88.243
		c1.294,0.072,2.544,0.198,3.815,0.299C357.121,93.785,305.354,94.733,253.561,107.536z"/>
	<g>
		<path fill="#999999" d="M36.023,836.512c-0.085-1.79-8.527-179.85-11.325-252.628l-2.195-56.687
			c-1.303-33.467-1.897-48.743-1.897-51.589c0-6.022,5.045-7.112,17.113-7.392c4.422-0.074,27.346,1.209,59.113,3.023
			c67.528,3.858,169.587,9.711,208.599,8.616c9.622-0.262,24.667-0.719,43.087-1.277c160.693-4.872,268.762-7.502,273.835-4.501
			c7.163,4.23,11.44,7.829,10.444,22.079l-2.824-0.195c0.903-12.935-2.485-15.563-9.058-19.447
			c-7.325-3.147-186.304,2.286-272.313,4.896c-18.422,0.559-33.471,1.014-43.095,1.277c-39.161,1.062-141.264-4.763-208.836-8.621
			c-31.694-1.81-54.595-3.135-58.886-3.018c-14.348,0.332-14.348,2.197-14.348,4.56c0,2.791,0.594,18.048,1.895,51.48l2.194,56.686
			c2.8,72.767,11.241,250.816,11.325,252.606L36.023,836.512z"/>
	</g>
	<g>
		<path d="M303.272,471.472c-71.386,0-268.125-6.455-275.426-15.417l2.194-1.788c7.274,7.414,214.847,15.696,287.043,14.264
			c63.428-1.242,300.924-10.678,303.317-10.772l0.111,2.828c-2.393,0.096-239.918,9.534-303.372,10.776
			C313.318,471.437,308.647,471.472,303.272,471.472z"/>
	</g>
	<path fill="none" d="M288.879,759.235c-1.762,0-3.552-0.01-5.329-0.015c13.397,6.818,28.535,10.689,44.569,10.689
		c17.288,0,33.542-4.485,47.684-12.332c-18.852,0.508-36.993,0.959-53.631,1.321C311.521,759.13,300.354,759.235,288.879,759.235z"
		/>
	<path fill="none" d="M330.951,753.394c-27.616,0-52.018-13.96-66.571-35.178c-7.734-0.13-15.48-0.275-23.206-0.432
		c8.606,16.027,21.518,29.399,37.173,38.592c15.17,0.08,29.897-0.005,43.764-0.308c18.116-0.394,38.011-0.894,58.67-1.457
		c14.225-9.022,26.009-21.563,34.074-36.415c-5.832,0.113-11.684,0.216-17.546,0.306
		C382.731,739.554,358.439,753.394,330.951,753.394z"/>
	<path fill="none" d="M399.147,715.642c5.738-0.091,11.467-0.194,17.174-0.306c6.016-11.997,9.666-25.373,10.309-39.527
		c-5.064,0.115-10.121,0.225-15.16,0.328C410.855,690.618,406.439,704.104,399.147,715.642z"/>
	<path fill="none" d="M411.644,672.701c0,0.196-0.028,0.385-0.029,0.581c5.014-0.104,10.048-0.214,15.087-0.329
		c0.009-0.557,0.042-1.109,0.042-1.668c0-13.503-2.733-26.378-7.667-38.11c-5.941,0.159-11.81,0.307-17.584,0.442
		C407.941,645.208,411.644,658.524,411.644,672.701z"/>
	<path fill="none" d="M250.258,672.701c0-14.246,3.745-27.62,10.251-39.249c-7.636-0.167-15.403-0.35-23.239-0.545
		c-5.005,11.802-7.775,24.773-7.775,38.378c0,0.526,0.032,1.045,0.04,1.569c6.949,0.171,13.878,0.331,20.755,0.478
		C250.288,673.12,250.258,672.914,250.258,672.701z"/>
	<path fill="none" d="M250.434,676.168c-6.901-0.148-13.853-0.308-20.827-0.48c0.62,14.034,4.19,27.31,10.099,39.234
		c7.612,0.156,15.248,0.3,22.873,0.43C255.399,703.885,251.048,690.517,250.434,676.168z"/>
	<path fill="none" d="M381.293,588.289c-15.356-9.873-33.6-15.628-53.174-15.628c-19.305,0-37.317,5.597-52.541,15.222
		c23.703,0.51,45.648,0.822,63.867,0.822C352.144,588.705,366.286,588.553,381.293,588.289z"/>
	<path fill="none" d="M385.358,591.046c-16.52,0.309-32.072,0.49-45.913,0.49c-19.269,0-42.7-0.349-67.971-0.911
		c-14.181,9.989-25.616,23.61-32.948,39.509c7.987,0.197,15.897,0.382,23.668,0.549c14.2-23.149,39.667-38.674,68.758-38.674
		c29.15,0,54.662,15.59,68.845,38.817c5.914-0.137,11.932-0.287,18.029-0.449C410.599,614.596,399.337,601.047,385.358,591.046z"/>
	<path fill="#999999" d="M26.174,579.269l-0.125,2.828c1.689,0.075,135.719,5.999,240.761,8.423
		c1.241-0.944,2.506-1.858,3.791-2.746C165.075,585.408,27.883,579.344,26.174,579.269z"/>
	<path fill="#999999" d="M629.885,582.096l-0.14-2.828c-1.627,0.081-140.981,6.983-243.508,8.93c1.271,0.892,2.522,1.81,3.749,2.758
		C492.189,588.916,628.277,582.176,629.885,582.096z"/>
	<path fill="#999999" d="M628.174,622.367c-1.43,0.069-112.535,5.357-207.28,7.927c0.411,0.927,0.811,1.859,1.195,2.8
		c94.537-2.582,204.793-7.83,206.218-7.899L628.174,622.367z"/>
	<path fill="#999999" d="M28.528,623.154l-0.114,2.828c1.535,0.063,108.458,4.389,205.841,6.849
		c0.384-0.933,0.788-1.855,1.199-2.774C137.811,627.605,30.07,623.217,28.528,623.154z"/>
	<path fill="#999999" d="M29.951,665.86l-0.129,2.828c1.306,0.059,100.329,4.509,196.952,6.929c-0.04-0.941-0.058-1.887-0.072-2.834
		C130.16,670.364,31.254,665.919,29.951,665.86z"/>
	<path fill="#999999" d="M626.725,669.239l-0.118-2.828c-1.398,0.059-99.874,4.223-197.072,6.477
		c-0.015,0.954-0.031,1.908-0.072,2.855C526.747,673.493,625.329,669.3,626.725,669.239z"/>
	<path fill="#999999" d="M31.363,708.33l-0.122,2.828c1.337,0.059,101.472,4.381,206.718,6.56c-0.491-0.949-0.984-1.896-1.445-2.862
		C131.858,712.667,32.693,708.388,31.363,708.33z"/>
	<path fill="#999999" d="M625.254,710.214l-0.162-2.828c-1.211,0.071-98.992,5.71-205.557,7.885
		c-0.467,0.967-0.971,1.912-1.468,2.862C525.284,715.98,624.041,710.284,625.254,710.214z"/>
	<path fill="#999999" d="M623.809,749.619l-0.103-2.831c-1.539,0.056-128.881,4.678-237.6,7.678
		c-1.461,1.022-2.947,2.009-4.463,2.955C491.339,754.424,622.249,749.674,623.809,749.619z"/>
	<path fill="#999999" d="M33.446,746.319l-0.199,2.824c1.516,0.107,134.42,9.435,244.335,10.058
		c-1.583-0.914-3.14-1.866-4.668-2.861C164.063,755.489,34.94,746.424,33.446,746.319z"/>
	<path fill="#999999" d="M328.12,769.91c-16.034,0-31.172-3.871-44.569-10.689c-1.987-0.006-3.966-0.009-5.969-0.02
		c14.892,8.594,32.143,13.54,50.538,13.54c19.636,0,37.975-5.624,53.523-15.321c-1.954,0.053-3.9,0.106-5.839,0.158
		C361.661,765.425,345.407,769.91,328.12,769.91z"/>
	<path fill="#999999" d="M271.474,590.625c-1.55-0.034-3.102-0.069-4.664-0.105c-13.508,10.279-24.355,23.864-31.356,39.537
		c1.026,0.026,2.049,0.051,3.072,0.077C245.858,614.235,257.292,600.614,271.474,590.625z"/>
	<path fill="#999999" d="M229.495,671.285c0-13.605,2.77-26.576,7.775-38.378c-1.004-0.025-2.009-0.05-3.015-0.076
		c-4.88,11.868-7.591,24.848-7.591,38.454c0,0.502,0.031,0.997,0.038,1.498c0.944,0.024,1.889,0.048,2.833,0.071
		C229.527,672.33,229.495,671.811,229.495,671.285z"/>
	<path fill="#999999" d="M241.174,717.784c-1.072-0.022-2.144-0.044-3.215-0.066c8.121,15.704,20.214,29.021,34.955,38.622
		c1.817,0.014,3.628,0.027,5.432,0.036C262.691,747.183,249.779,733.81,241.174,717.784z"/>
	<path fill="#999999" d="M229.607,675.688c-0.944-0.023-1.889-0.047-2.833-0.071c0.591,13.992,4.02,27.26,9.74,39.238
		c1.064,0.022,2.127,0.045,3.192,0.067C233.797,702.998,230.227,689.723,229.607,675.688z"/>
	<path fill="#999999" d="M380.78,754.611c1.771-0.048,3.544-0.097,5.326-0.146c13.357-9.34,24.364-21.804,31.962-36.332
		c-1.07,0.021-2.142,0.042-3.213,0.063C406.789,733.048,395.005,745.589,380.78,754.611z"/>
	<path fill="#999999" d="M417.824,630.376c1.022-0.027,2.044-0.054,3.07-0.082c-6.9-15.555-17.592-29.059-30.908-39.338
		c-1.55,0.031-3.095,0.061-4.628,0.09C399.337,601.047,410.599,614.596,417.824,630.376z"/>
	<path fill="#999999" d="M416.321,715.336c1.073-0.021,2.144-0.043,3.215-0.065c5.821-12.05,9.313-25.421,9.927-39.527
		c-0.945,0.022-1.888,0.044-2.833,0.065C425.987,689.963,422.337,703.339,416.321,715.336z"/>
	<path fill="#999999" d="M328.12,572.66c19.573,0,37.817,5.755,53.174,15.628c1.639-0.029,3.285-0.059,4.944-0.09
		c-16.474-11.558-36.509-18.369-58.117-18.369c-21.345,0-41.16,6.641-57.519,17.944c1.667,0.037,3.327,0.074,4.978,0.109
		C290.802,578.257,308.815,572.66,328.12,572.66z"/>
	<path fill="#999999" d="M426.744,671.285c0,0.559-0.033,1.111-0.042,1.668c0.944-0.022,1.888-0.043,2.833-0.065
		c0.008-0.536,0.041-1.066,0.041-1.604c0-13.507-2.675-26.395-7.487-38.192c-1.005,0.027-2.01,0.055-3.011,0.082
		C424.011,644.907,426.744,657.782,426.744,671.285z"/>
	<path fill="#999999" d="M275.578,587.883c-1.651-0.036-3.311-0.072-4.978-0.109c-1.285,0.888-2.55,1.802-3.791,2.746
		c1.563,0.036,3.115,0.071,4.664,0.105C272.818,589.678,274.186,588.763,275.578,587.883z"/>
	<path fill="#999999" d="M385.358,591.046c1.534-0.029,3.079-0.059,4.628-0.09c-1.228-0.948-2.478-1.866-3.749-2.758
		c-1.659,0.032-3.305,0.061-4.944,0.09C382.672,589.175,384.027,590.094,385.358,591.046z"/>
	<path fill="#999999" d="M417.824,630.376c0.426,0.929,0.856,1.855,1.253,2.799c1.001-0.027,2.007-0.055,3.011-0.082
		c-0.384-0.941-0.784-1.873-1.195-2.8C419.868,630.322,418.846,630.349,417.824,630.376z"/>
	<path fill="#999999" d="M238.525,630.133c-1.023-0.025-2.047-0.051-3.072-0.077c-0.411,0.919-0.815,1.841-1.199,2.774
		c1.006,0.025,2.011,0.05,3.015,0.076C237.667,631.97,238.1,631.055,238.525,630.133z"/>
	<path fill="#999999" d="M229.535,672.854c-0.944-0.023-1.889-0.047-2.833-0.071c0.014,0.947,0.032,1.893,0.072,2.834
		c0.944,0.023,1.889,0.048,2.833,0.071C229.565,674.748,229.55,673.801,229.535,672.854z"/>
	<path fill="#999999" d="M426.629,675.809c0.944-0.021,1.888-0.043,2.833-0.065c0.041-0.947,0.057-1.901,0.072-2.855
		c-0.944,0.022-1.889,0.043-2.833,0.065C426.686,673.907,426.673,674.862,426.629,675.809z"/>
	<path fill="#999999" d="M239.706,714.922c-1.065-0.022-2.128-0.044-3.192-0.067c0.461,0.966,0.955,1.913,1.445,2.862
		c1.071,0.022,2.143,0.044,3.215,0.066C240.667,716.84,240.182,715.884,239.706,714.922z"/>
	<path fill="#999999" d="M414.854,718.196c1.072-0.021,2.143-0.041,3.213-0.063c0.497-0.95,1.001-1.895,1.468-2.862
		c-1.071,0.022-2.142,0.044-3.215,0.065C415.84,716.294,415.365,717.256,414.854,718.196z"/>
	<path fill="#999999" d="M375.804,757.578c1.939-0.052,3.885-0.105,5.839-0.158c1.516-0.945,3.002-1.933,4.463-2.955
		c-1.781,0.049-3.555,0.098-5.326,0.146C379.151,755.644,377.496,756.64,375.804,757.578z"/>
	<path fill="#999999" d="M278.346,756.376c-1.805-0.009-3.616-0.022-5.432-0.036c1.528,0.995,3.085,1.947,4.668,2.861
		c2.003,0.011,3.982,0.014,5.969,0.02C281.785,758.322,280.049,757.376,278.346,756.376z"/>
	<path fill="#E2E2E2" d="M398.231,633.693c-0.549-0.943-1.112-1.876-1.699-2.793c-13.845-21.644-38.036-36.061-65.581-36.061
		c-27.482,0-51.63,14.35-65.49,35.912c-0.584,0.909-1.138,1.837-1.685,2.771c-6.749,11.525-10.686,24.886-10.686,39.179
		c0,0.234,0.033,0.459,0.035,0.692c0.009,0.955,0.101,1.888,0.144,2.835c0.651,14.419,5.176,27.833,12.654,39.181
		c0.646,0.98,1.344,1.916,2.032,2.864c14.162,19.52,37.09,32.288,62.996,32.288c25.781,0,48.609-12.648,62.787-32.007
		c0.696-0.951,1.417-1.88,2.07-2.863c7.592-11.415,12.177-24.948,12.828-39.497c0.043-0.953,0.137-1.894,0.145-2.856
		c0.002-0.215,0.032-0.423,0.032-0.639C408.812,658.48,404.917,645.179,398.231,633.693z"/>
	<path fill="#999999" d="M397.514,715.667c0.545-0.009,1.089-0.017,1.633-0.025c7.292-11.538,11.708-25.024,12.323-39.505
		c-0.472,0.01-0.945,0.02-1.417,0.029C409.424,690.692,404.935,704.195,397.514,715.667z"/>
	<path fill="#999999" d="M330.951,751.978c-26.818,0-50.48-13.352-64.826-33.734c-0.582-0.01-1.163-0.02-1.745-0.029
		c14.553,21.218,38.955,35.178,66.571,35.178c27.488,0,51.78-13.839,66.357-34.892c-0.581,0.009-1.162,0.018-1.743,0.026
		C381.198,738.746,357.642,751.978,330.951,751.978z"/>
	<path fill="#999999" d="M251.85,676.198c-0.472-0.01-0.944-0.02-1.417-0.03c0.614,14.349,4.965,27.718,12.145,39.185
		c0.545,0.009,1.09,0.019,1.635,0.028C256.906,703.977,252.48,690.592,251.85,676.198z"/>
	<path fill="#999999" d="M251.674,672.701c0-14.279,3.828-27.642,10.435-39.214c-0.533-0.011-1.065-0.023-1.6-0.035
		c-6.506,11.629-10.251,25.003-10.251,39.249c0,0.213,0.03,0.419,0.032,0.632c0.472,0.01,0.945,0.02,1.417,0.03
		C251.705,673.14,251.674,672.924,251.674,672.701z"/>
	<path fill="#999999" d="M410.228,672.701c0,0.206-0.029,0.405-0.031,0.61c0.472-0.01,0.945-0.019,1.417-0.029
		c0.001-0.196,0.029-0.385,0.029-0.581c0-14.177-3.703-27.493-10.15-39.083c-0.535,0.013-1.065,0.025-1.598,0.037
		C406.442,645.188,410.228,658.492,410.228,672.701z"/>
	<path fill="#999999" d="M330.951,593.424c28.405,0,53.249,14.988,67.248,37.438c0.53-0.012,1.065-0.025,1.597-0.037
		c-14.183-23.228-39.695-38.817-68.845-38.817c-29.09,0-54.557,15.526-68.758,38.674c0.534,0.012,1.065,0.023,1.598,0.034
		C277.807,608.347,302.607,593.424,330.951,593.424z"/>
	<path fill="#999999" d="M262.109,633.486c0.537-0.94,1.109-1.855,1.683-2.77c-0.533-0.011-1.064-0.023-1.598-0.034
		c-0.565,0.921-1.156,1.825-1.684,2.77C261.044,633.463,261.575,633.475,262.109,633.486z"/>
	<path fill="#999999" d="M399.896,633.655c0.533-0.012,1.064-0.024,1.598-0.037c-0.531-0.954-1.13-1.863-1.698-2.793
		c-0.532,0.012-1.066,0.025-1.597,0.037C398.775,631.786,399.357,632.706,399.896,633.655z"/>
	<path fill="#999999" d="M410.053,676.167c0.471-0.01,0.945-0.02,1.417-0.029c0.04-0.954,0.138-1.893,0.144-2.855
		c-0.472,0.01-0.945,0.019-1.417,0.029C410.19,674.273,410.095,675.213,410.053,676.167z"/>
	<path fill="#999999" d="M251.707,673.363c-0.472-0.01-0.945-0.02-1.417-0.03c0.008,0.955,0.103,1.888,0.144,2.835
		c0.472,0.01,0.945,0.02,1.417,0.03C251.809,675.251,251.715,674.318,251.707,673.363z"/>
	<path fill="#999999" d="M395.565,718.528c0.581-0.009,1.162-0.017,1.743-0.026c0.645-0.932,1.233-1.9,1.84-2.86
		c-0.544,0.009-1.089,0.017-1.633,0.025C396.886,716.638,396.234,717.587,395.565,718.528z"/>
	<path fill="#999999" d="M264.214,715.381c-0.545-0.009-1.09-0.019-1.635-0.028c0.599,0.956,1.164,1.934,1.801,2.863
		c0.582,0.01,1.164,0.02,1.745,0.029C265.464,717.306,264.835,716.349,264.214,715.381z"/>
	<path fill="#999999" d="M330.951,750.562c-25.906,0-48.834-12.768-62.996-32.288c-0.61-0.01-1.219-0.02-1.83-0.03
		c14.346,20.381,38.008,33.734,64.826,33.734c26.691,0,50.248-13.232,64.614-33.45c-0.609,0.009-1.218,0.019-1.827,0.027
		C379.56,737.915,356.732,750.562,330.951,750.562z"/>
	<path fill="#999999" d="M253.268,676.228c-0.471-0.01-0.946-0.021-1.418-0.03c0.629,14.394,5.055,27.779,12.364,39.183
		c0.569,0.009,1.139,0.02,1.709,0.029C258.444,704.062,253.919,690.648,253.268,676.228z"/>
	<path fill="#999999" d="M251.707,673.363c0.472,0.01,0.946,0.021,1.417,0.03c-0.002-0.233-0.035-0.459-0.035-0.692
		c0-14.293,3.938-27.654,10.686-39.179c-0.556-0.012-1.11-0.023-1.667-0.036c-6.607,11.572-10.435,24.935-10.435,39.214
		C251.674,672.924,251.705,673.14,251.707,673.363z"/>
	<path fill="#999999" d="M395.808,715.693c0.569-0.008,1.138-0.017,1.706-0.025c7.421-11.472,11.91-24.976,12.539-39.501
		c-0.473,0.01-0.945,0.019-1.418,0.029C407.985,690.745,403.4,704.278,395.808,715.693z"/>
	<path fill="#999999" d="M408.812,672.701c0,0.216-0.03,0.424-0.032,0.639c0.473-0.01,0.944-0.019,1.417-0.028
		c0.002-0.206,0.031-0.404,0.031-0.61c0-14.209-3.786-27.513-10.332-39.046c-0.555,0.013-1.112,0.026-1.664,0.038
		C404.917,645.179,408.812,658.48,408.812,672.701z"/>
	<path fill="#999999" d="M330.951,594.839c27.545,0,51.737,14.417,65.581,36.061c0.554-0.012,1.111-0.025,1.667-0.038
		c-13.999-22.45-38.843-37.438-67.248-37.438c-28.344,0-53.144,14.923-67.159,37.293c0.558,0.012,1.112,0.023,1.669,0.035
		C279.321,609.189,303.469,594.839,330.951,594.839z"/>
	<path fill="#999999" d="M265.461,630.751c-0.557-0.012-1.111-0.023-1.669-0.035c-0.574,0.915-1.146,1.83-1.683,2.77
		c0.557,0.012,1.111,0.024,1.667,0.036C264.323,632.588,264.876,631.66,265.461,630.751z"/>
	<path fill="#999999" d="M398.231,633.693c0.553-0.013,1.11-0.025,1.664-0.038c-0.539-0.949-1.12-1.869-1.697-2.793
		c-0.556,0.013-1.113,0.026-1.667,0.038C397.119,631.817,397.682,632.75,398.231,633.693z"/>
	<path fill="#999999" d="M253.124,673.393c-0.471-0.01-0.945-0.02-1.417-0.03c0.008,0.955,0.102,1.888,0.143,2.835
		c0.472,0.01,0.947,0.021,1.418,0.03C253.225,675.282,253.133,674.348,253.124,673.393z"/>
	<path fill="#999999" d="M408.635,676.195c0.473-0.009,0.945-0.019,1.418-0.029c0.041-0.954,0.137-1.893,0.144-2.855
		c-0.473,0.01-0.944,0.019-1.417,0.028C408.772,674.302,408.678,675.242,408.635,676.195z"/>
	<path fill="#999999" d="M393.738,718.555c0.609-0.009,1.218-0.018,1.827-0.027c0.669-0.941,1.321-1.89,1.949-2.861
		c-0.568,0.009-1.137,0.017-1.706,0.025C395.154,716.675,394.434,717.605,393.738,718.555z"/>
	<path fill="#999999" d="M265.923,715.41c-0.569-0.009-1.139-0.02-1.709-0.029c0.621,0.968,1.25,1.925,1.911,2.864
		c0.61,0.01,1.22,0.02,1.83,0.03C267.267,717.326,266.568,716.389,265.923,715.41z"/>
	<path d="M334.53,732.155l-12.679-0.076l0.082-13.776l-17.555-0.105l0.077-12.923c0,0,27.187,0.04,33.282,0.077
		c6.096,0.036,10.521-6.033,8.991-15.308c-1.53-9.275-11.9-7.996-14.704-8.012c-2.804-0.017-8.534-0.051-13.409-0.324
		c-4.875-0.273-21.799-3.896-21.681-23.781c0.113-18.896,19.284-24.024,25.622-23.742l0.083-13.898l12.557,0.075l-0.082,13.776
		l17.433,0.104l-0.076,12.679c0,0-26.82-0.16-32.916-0.197c-6.096-0.036-9.918,7.134-9.948,12.132
		c-0.03,4.998,3.72,10.019,11.766,10.067c8.046,0.048,10.972,0.065,17.188,0.346c6.216,0.281,20.685,6.707,21.447,22.073
		s-9.302,26.522-25.398,27.035L334.53,732.155z"/>
</g>
</svg>
