<?xml version="1.0" encoding="utf-8"?>
<!-- Generator: Adobe Illustrator 17.0.0, SVG Export Plug-In . SVG Version: 6.00 Build 0)  -->
<!DOCTYPE svg PUBLIC "-//W3C//DTD SVG 1.1//EN" "http://www.w3.org/Graphics/SVG/1.1/DTD/svg11.dtd">
<svg version="1.1" id="Layer_1" xmlns="http://www.w3.org/2000/svg" xmlns:xlink="http://www.w3.org/1999/xlink" x="0px" y="0px"
	 width="864px" height="1049.618px" viewBox="0 0 864 1049.618" enable-background="new 0 0 864 1049.618" xml:space="preserve">
<g>
	<path opacity="0.4" d="M297.82,1026.976c0,0,17.35,26.813,45.346,22.082s61.711-58.556,111.394-140.771
		s375.586-602.713,403.386-654.171c27.799-51.458-45.544-75.709-110.014-88.721s-333,475.546-333,475.546L297.82,1026.976z"/>
	<path d="M777.3,112.209c0,0-373.023,809.137-408.512,873.411s-70.583,58.753-110.803,32.728S34.605,880.83,10.059,854.805
		c-24.546-26.025,2.366-70.681,11.829-89.017c9.464-18.336,301.948-680.491,323.241-725.148
		c21.293-44.656,58.26-43.769,87.834-37.559s271.783,47.219,312.003,56.289C785.186,68.44,785.58,94.465,777.3,112.209z"/>
	<path d="M465.79,37.289c0,0-8.429,16.364-8.281,22.722c0.148,6.358,6.802,8.724,20.11,10.203
		c13.308,1.479,117.408,25.433,137.518,26.912c20.11,1.479,22.18-3.549,27.504-14.491c5.323-10.942,7.689-16.266,7.689-16.266
		s68.907,12.421,84.877,16.857c15.97,4.436,20.702,15.378,3.845,52.345c-16.857,36.967-390.077,844.33-401.315,864.44
		c-11.238,20.11-28.095,17.153-49.092,5.028S50.279,858.059,32.83,843.272s-14.491-32.235,3.845-66.541
		C55.011,742.425,341.284,97.127,360.803,57.794c19.519-39.333,30.461-35.193,54.12-30.461
		C438.582,32.064,465.79,37.289,465.79,37.289z"/>
</g>
<g>
	<g enable-background="new    ">
		<path fill="#FFFFFF" d="M145.029,835.609l6.58,3.268l-3.984,8.021l-1.316-0.653l0.484-2.181c-1.728,0.912-4.065,0.898-6.112-0.118
			c-2.569-1.276-3.355-2.839-3.755-3.974c-1.22-3.314-0.006-5.914,0.782-7.502c1.815-3.656,6.073-6.671,10.961-4.244
			c2.8,1.39,5.124,4.523,3.892,8.104l-1.964-0.975c0.649-2.933-1.275-4.564-2.926-5.384c-2.694-1.338-5.976-0.287-7.926,3.64
			c-1.515,3.05-2.069,6.681,1.922,8.663c0.751,0.373,2.005,0.892,3.547,0.564c1.834-0.391,2.834-1.562,3.632-3.17l-4.68-2.324
			L145.029,835.609z"/>
		<path fill="#FFFFFF" d="M161.86,849.696c-0.322,0.492-1.59,1.789-3.426,2.023c-0.667,0.085-1.584,0.15-3.338-0.721
			c-3.071-1.525-3.738-4.747-2.171-7.9c1.681-3.384,4.649-5.27,8.263-3.475c3.153,1.566,3.455,4.841,1.535,8.706l-7.98-3.963
			c-1.13,2.276-0.719,4.121,1.392,5.169c1.733,0.861,3.421,0.032,3.888-0.752L161.86,849.696z M161.547,845.922
			c0.736-1.744,0.803-3.663-1.432-4.773c-1.692-0.84-3.807,0.062-4.647,1.754L161.547,845.922z"/>
		<path fill="#FFFFFF" d="M169.778,846.18l-3.527,7.103c-0.425,0.856,0.306,1.219,0.683,1.406l0.648,0.322l-0.716,1.442
			c-0.7-0.27-1.264-0.446-1.452-0.539c-1.818-0.903-1.706-2.122-1.053-3.438l3.579-7.208l-1.484-0.737l0.757-1.524l1.484,0.737
			l1.515-3.05l1.838,0.913l-1.515,3.05l1.756,0.872l-0.757,1.524L169.778,846.18z"/>
		<path fill="#FFFFFF" d="M185.261,855.85c0.323-0.7,0.642-1.974-1.677-3.125c-0.563-0.28-2.265-0.89-2.94,0.468
			c-0.446,0.898,0.014,1.388,1.258,2.448l1.61,1.371c1.996,1.695,2.374,2.925,1.638,4.408c-1.121,2.256-3.653,2.69-6.118,1.466
			c-4.323-2.147-3.393-4.809-2.801-6.156l1.775,0.882c-0.363,0.888-0.797,2.391,1.793,3.677c1.316,0.653,2.766,0.723,3.367-0.488
			c0.436-0.877-0.025-1.471-1.395-2.646l-1.871-1.58c-1.337-1.133-1.956-2.404-1.209-3.907c1.193-2.402,3.716-2.504,5.868-1.435
			c3.907,1.94,2.746,4.958,2.476,5.501L185.261,855.85z"/>
		<path fill="#FFFFFF" d="M192.902,857.664l-3.527,7.103c-0.425,0.856,0.305,1.219,0.681,1.405l0.648,0.322l-0.716,1.442
			c-0.699-0.269-1.264-0.446-1.452-0.539c-1.817-0.902-1.706-2.122-1.053-3.438l3.579-7.208l-1.483-0.736l0.757-1.524l1.483,0.736
			l1.515-3.05l1.839,0.913l-1.515,3.05l1.754,0.871l-0.757,1.524L192.902,857.664z"/>
		<path fill="#FFFFFF" d="M195.854,861.37c1.38-2.569,3.621-2.732,6.316-1.394c0.877,0.436,3.929,2.263,2.538,5.063l-3.122,6.287
			c-0.228,0.46-0.092,0.762,0.284,0.949c0.167,0.083,0.417,0.156,0.647,0.217l-0.664,1.337c-0.354-0.072-0.688-0.081-1.107-0.289
			c-1.628-0.809-1.465-1.77-1.112-2.637c-1.094,0.421-2.7,0.873-4.83-0.185c-2.005-0.996-2.793-2.974-1.859-4.854
			c0.457-0.919,1.786-2.915,5.023-1.777l3.215,1.129c0.46,0.175,1.065,0.268,1.604-0.819c0.57-1.149,0.046-2.191-1.687-3.051
			c-2.089-1.038-3.015,0.091-3.554,0.864L195.854,861.37z M201.573,866.737c-0.405,0.084-0.948,0.023-3.371-0.815
			c-0.96-0.322-2.537-0.766-3.222,0.613c-0.592,1.191-0.337,2.203,1.041,2.887c1.713,0.851,3.934,0.573,4.66-0.89L201.573,866.737z"
			/>
		<path fill="#FFFFFF" d="M206.198,875.986l-1.838-0.913l5.425-10.924l1.733,0.861l-0.902,1.817l0.042,0.021
			c1.364-0.911,2.75-1.29,4.128-0.606c0.23,0.115,0.325,0.188,0.45,0.301l-0.944,1.901l-0.689-0.342
			c-1.713-0.851-3.464-0.053-4.252,1.534L206.198,875.986z"/>
		<path fill="#FFFFFF" d="M219.18,870.714l-3.527,7.103c-0.425,0.856,0.305,1.219,0.681,1.405l0.648,0.322l-0.716,1.442
			c-0.699-0.269-1.264-0.446-1.452-0.539c-1.817-0.902-1.706-2.122-1.053-3.438l3.579-7.208l-1.483-0.736l0.757-1.524l1.483,0.736
			l1.515-3.05l1.839,0.913l-1.515,3.05l1.754,0.871l-0.757,1.524L219.18,870.714z"/>
		<path fill="#FFFFFF" d="M229.394,883.234c-0.322,0.492-1.592,1.788-3.426,2.023c-0.668,0.085-1.585,0.149-3.34-0.722
			c-3.071-1.525-3.736-4.746-2.17-7.899c1.681-3.384,4.649-5.27,8.262-3.475c3.155,1.567,3.455,4.841,1.535,8.706l-7.979-3.962
			c-1.13,2.276-0.719,4.121,1.391,5.169c1.734,0.861,3.421,0.032,3.889-0.751L229.394,883.234z M229.081,879.46
			c0.736-1.744,0.803-3.663-1.432-4.773c-1.692-0.84-3.807,0.062-4.647,1.754L229.081,879.46z"/>
		<path fill="#FFFFFF" d="M239.453,892.501l-1.734-0.861l0.747-1.504l-0.041-0.02c-1.53,1.089-2.949,0.8-4.014,0.271
			c-3.719-1.847-3.072-5.873-1.776-8.485c1.525-3.071,4.357-4.633,7.26-3.191c1.985,0.986,2.209,2.633,2.336,3.478l0.114-0.125
			l2.718-5.473l1.839,0.913L239.453,892.501z M235.239,888.82c1.17,0.581,3.371,0.711,4.813-2.192c0.882-1.777,2.01-4.783-0.642-6.1
			c-2.841-1.411-4.325,1.21-5.021,2.61C233.196,885.54,233.234,887.824,235.239,888.82z"/>
	</g>
	<g id="Group_423" transform="translate(20.911 1643.168)">
		<path id="Path_6" fill="#FFFFFF" d="M218.773-839.446c-1.132,2.174-2.369,4.263-3.681,6.31c-0.391,0.609-0.849,1.164-1.253,1.761
			c-0.38,0.467-1.067,0.538-1.534,0.157c-0.005-0.004-0.01-0.008-0.015-0.012c-0.418-0.402-0.484-1.047-0.156-1.525
			c1.297-1.79,2.482-3.659,3.547-5.596c1.086-1.945,2.039-3.961,2.854-6.034c1.139-2.936,2.289-5.886,2.607-9.056
			c0.319-3.058-0.261-6.143-1.669-8.876c-2.638-5.284-7.931-8.723-13.831-8.987c-2.264-0.118-4.526,0.254-6.633,1.091
			c-3.374,1.308-6.221,3.696-8.095,6.793c-0.823,1.426-1.45,2.957-1.865,4.55c-0.556,2.129-1.466,4.149-2.694,5.975
			c-0.271,0.51-0.903,0.704-1.413,0.434c-0.031-0.016-0.061-0.034-0.09-0.053c-0.492-0.277-0.667-0.9-0.391-1.393
			c0.023-0.041,0.049-0.081,0.078-0.118c0.995-1.582,1.766-3.295,2.29-5.09c0.358-1.461,0.872-2.88,1.533-4.232
			c2.499-4.929,7.065-8.486,12.455-9.704c7.649-1.744,15.565,1.535,19.74,8.177c1.023,1.616,1.787,3.381,2.265,5.233
			c0.95,3.556,0.71,7.067-0.339,10.568C221.485-845.777,220.246-842.559,218.773-839.446z"/>
		<path id="Path_7" fill="#FFFFFF" d="M200.234-879.563c-1.255,0.238-2.491,0.569-3.697,0.991c-2.619,0.897-5.062,2.243-7.218,3.98
			c-1.702,1.366-3.222,2.944-4.523,4.696c-0.273,0.468-0.844,0.67-1.35,0.477c-0.433-0.181-0.711-0.609-0.698-1.078
			c0.011-0.269,0.112-0.526,0.287-0.73c8.922-12.071,25.939-14.624,38.01-5.702c1.768,1.307,3.371,2.823,4.774,4.516
			c1.448,1.768,2.682,3.701,3.675,5.76c2.795,5.632,3.268,12.152,1.809,18.221c-0.299,1.24-0.66,2.464-1.054,3.677
			c-0.226,0.695-0.795,1.038-1.391,0.856c-0.641-0.195-0.935-0.769-0.699-1.511c0.498-1.487,0.914-3.001,1.245-4.534
			c0.759-3.621,0.694-7.366-0.191-10.958c-0.434-1.716-1.04-3.383-1.81-4.976c-1.328-2.781-3.163-5.291-5.409-7.401
			c-2.131-2.027-4.616-3.647-7.331-4.779C210.104-879.957,205.087-880.481,200.234-879.563z"/>
		<path id="Path_8" fill="#FFFFFF" d="M218.904-883.283c1.183,0.563,2.327,1.205,3.423,1.924c0.119,0.076,0.233,0.16,0.34,0.253
			c0.473,0.365,0.561,1.045,0.195,1.519c-0.009,0.011-0.018,0.023-0.027,0.034c-0.339,0.463-0.988,0.564-1.451,0.225
			c-0.002-0.002-0.004-0.003-0.007-0.005c-1.503-1.028-3.105-1.904-4.78-2.616c-2.328-1.023-4.784-1.728-7.301-2.096
			c-3.977-0.615-8.038-0.397-11.927,0.642c-1.344,0.37-2.662,0.83-3.945,1.377c-1.501,0.634-2.945,1.396-4.316,2.278
			c-3.111,1.964-5.818,4.506-7.974,7.488c-2.03,2.761-3.537,5.871-4.444,9.176c-0.406,1.665-1.204,3.208-2.329,4.5
			c-1.039,1.182-2.356,2.087-3.831,2.635c-0.559,0.22-1.191-0.054-1.411-0.614c-0.005-0.012-0.01-0.025-0.014-0.037
			c-0.21-0.549,0.066-1.164,0.615-1.374c0.009-0.004,0.019-0.007,0.028-0.01c1.007-0.404,1.924-1.002,2.7-1.761
			c0.964-0.954,1.652-2.152,1.989-3.466c1.166-4.412,3.289-8.514,6.218-12.014c2.462-2.941,5.436-5.41,8.779-7.289
			c1.416-0.807,2.89-1.508,4.41-2.096c2.109-0.792,4.3-1.347,6.531-1.656c3.936-0.575,7.946-0.395,11.815,0.53
			C214.525-885.218,216.783-884.392,218.904-883.283z"/>
		<path id="Path_9" fill="#FFFFFF" d="M208.09-847.477c-1.527,3.514-3.496,6.818-5.859,9.833c-2.434,3.119-5.276,5.897-8.45,8.26
			c-2.277,1.696-4.707,3.178-7.257,4.426c-0.404,0.267-0.93,0.263-1.33-0.011c-0.483-0.339-0.6-1.006-0.261-1.49
			c0.114-0.163,0.272-0.291,0.455-0.369c1.007-0.541,2.036-1.039,3.024-1.616c1.359-0.809,2.677-1.687,3.947-2.63
			c2.404-1.761,4.608-3.782,6.571-6.024c1.551-1.769,2.955-3.661,4.197-5.659c0.954-1.513,1.802-3.089,2.54-4.719
			c1.014-2.208,1.826-4.504,2.426-6.858c0.383-1.753-0.727-3.484-2.479-3.868c-1.677-0.367-3.349,0.634-3.819,2.285
			c-0.814,3.032-2.011,5.948-3.56,8.679c-0.876,1.559-1.885,3.039-3.015,4.425c-0.308,0.425-0.874,0.572-1.349,0.349
			c-0.453-0.222-0.699-0.721-0.6-1.216c0.032-0.185,0.115-0.358,0.238-0.5c1.14-1.437,2.158-2.966,3.045-4.571
			c1.354-2.424,2.389-5.013,3.079-7.702c0.822-2.908,3.846-4.599,6.755-3.777c2.908,0.822,4.599,3.846,3.777,6.755
			c-0.018,0.063-0.037,0.125-0.057,0.187c-0.268,0.885-0.515,1.777-0.821,2.649C208.915-849.578,208.492-848.532,208.09-847.477z"/>
		<path id="Path_10" fill="#FFFFFF" d="M230.392-833.626c-1.229,2.541-2.628,4.997-4.186,7.351c-0.287,0.45-0.645,0.783-1.227,0.694
			c-0.418-0.054-0.761-0.356-0.87-0.763c-0.099-0.338-0.036-0.702,0.17-0.987c0.622-1.015,1.263-2.021,1.874-3.042
			c1.296-2.186,2.462-4.447,3.492-6.77c0.633-1.414,1.231-2.845,1.752-4.306c1.448-4.056,2.735-8.149,2.857-12.506
			c0.084-2.257-0.101-4.517-0.551-6.73c-0.137-0.765-0.34-1.516-0.606-2.246c-0.386-0.961-0.594-1.97-0.938-2.934
			c-0.328-0.877-0.716-1.73-1.163-2.553c-0.51-0.974-1.052-1.92-1.644-2.843c-1.008-1.553-2.174-2.998-3.479-4.311
			c-0.197-0.201-0.402-0.399-0.579-0.617c-0.384-0.438-0.341-1.106,0.098-1.49c0.01-0.008,0.019-0.017,0.029-0.025
			c0.427-0.387,1.083-0.371,1.492,0.035c1.537,1.523,2.925,3.19,4.144,4.978c1.783,2.644,3.155,5.542,4.071,8.596
			c0.748,2.509,1.187,5.1,1.308,7.715c0.114,2.383-0.045,4.772-0.473,7.119c-0.39,1.985-0.912,3.942-1.562,5.858
			c-0.591,1.852-1.288,3.667-2.013,5.469C231.806-836.463,231.139-835.024,230.392-833.626z"/>
		<path id="Path_11" fill="#FFFFFF" d="M210.13-865.723c-2.446-1.259-5.266-1.589-7.937-0.928c-3.16,0.722-5.889,2.702-7.557,5.482
			c-0.815,1.29-1.165,2.732-1.595,4.151c-1.148,3.696-3.074,7.104-5.649,9.994c-0.588,0.705-1.224,1.369-1.902,1.987
			c-3.213,2.889-7.048,4.999-11.208,6.166c-0.135,0.039-0.273,0.075-0.411,0.105c-0.549,0.186-1.144-0.108-1.33-0.657
			c-0.005-0.016-0.01-0.032-0.015-0.048c-0.183-0.583,0.141-1.204,0.724-1.388c0.032-0.01,0.065-0.019,0.099-0.026
			c2.604-0.683,5.08-1.782,7.333-3.255c1.891-1.252,3.615-2.739,5.133-4.424c1.796-2.057,3.255-4.384,4.324-6.897
			c0.589-1.394,0.921-2.862,1.419-4.279c1.532-4.303,5.038-7.607,9.424-8.881c2.592-0.754,5.346-0.743,7.932,0.03
			c1.111,0.335,2.179,0.797,3.184,1.376c0.543,0.281,0.763,0.945,0.494,1.494c-0.282,0.546-0.954,0.76-1.501,0.478
			c-0.011-0.005-0.021-0.011-0.031-0.017C210.749-865.417,210.439-865.57,210.13-865.723z"/>
		<path id="Path_12" fill="#FFFFFF" d="M208.137-831.048c-1.518,1.847-3.172,3.578-4.948,5.178
			c-2.104,1.907-4.345,3.656-6.705,5.235c-0.869,0.576-1.798,0.261-1.899-0.664c-0.058-0.433,0.156-0.857,0.538-1.068
			c2.511-1.637,4.87-3.498,7.046-5.56c2.834-2.691,5.357-5.691,7.523-8.944c1.605-2.438,3.005-5.004,4.187-7.672
			c1.194-2.612,2.12-5.339,2.766-8.137c0.396-1.882,0.313-3.833-0.241-5.675c-0.344-1.158-0.856-2.259-1.521-3.267
			c-0.431-0.684-0.357-1.325,0.204-1.688c0.597-0.386,1.204-0.196,1.657,0.516c2.447,3.836,2.913,7.929,1.635,12.267
			c-1.029,3.523-2.402,6.936-4.098,10.191C212.557-837.037,210.499-833.925,208.137-831.048z"/>
		<path id="Path_13" fill="#FFFFFF" d="M219.545-887.822c5.435,2.399,10.174,6.134,13.776,10.858
			c0.576,0.763,0.358,1.484-0.522,1.839c-0.467,0.1-0.947-0.097-1.211-0.495c-0.499-0.645-1.014-1.274-1.558-1.882
			c-5.027-5.643-11.816-9.418-19.262-10.709c-2.857-0.521-5.771-0.655-8.664-0.399c-2.234,0.191-4.443,0.602-6.596,1.226
			c-1.542,0.455-3.049,1.024-4.508,1.701c-0.525,0.242-1.058,0.467-1.577,0.726c-0.535,0.301-1.212,0.114-1.517-0.418
			c-0.298-0.491-0.141-1.13,0.349-1.428c0.033-0.02,0.068-0.039,0.104-0.055c1.279-0.701,2.61-1.302,3.982-1.797
			c7.628-2.853,16-3.028,23.741-0.497C217.259-888.773,218.416-888.329,219.545-887.822z"/>
		<path id="Path_14" fill="#FFFFFF" d="M225.948-845.588c1.224-3.602,2.109-7.259,1.769-11.11c-0.036-0.405-0.065-0.812-0.114-1.217
			c-0.055-0.469-0.479-0.805-0.948-0.75c-0.008,0.001-0.015,0.002-0.023,0.003l-0.533,0.078c-0.465,0.066-0.788,0.496-0.722,0.961
			c0.001,0.007,0.002,0.014,0.003,0.021l0.001,0.008c0.362,2.221,0.286,4.491-0.223,6.683c-0.912,3.961-2.262,7.808-4.027,11.47
			c-1.339,2.816-2.897,5.523-4.658,8.097c-1.006,1.498-2.096,2.935-3.245,4.327c-1.622,1.956-3.363,3.81-5.214,5.551
			c-0.163,0.147-0.315,0.305-0.456,0.474c-0.351,0.415-0.324,1.03,0.063,1.412c0.402,0.413,1.056,0.44,1.491,0.063
			c1.097-0.985,2.129-2.037,3.145-3.106c6.2-6.553,10.876-14.394,13.692-22.965L225.948-845.588z"/>
		<path id="Path_15" fill="#FFFFFF" d="M197.938-876.793c0.245-0.087,0.491-0.171,0.738-0.251c0.442-0.146,1.069-0.475,1.539-0.383
			c0.517,0.114,0.912,0.531,1,1.053c0.05,0.665-0.287,1.068-1.018,1.242c-2.42,0.558-4.718,1.555-6.78,2.941
			c-3.296,2.208-5.894,5.309-7.491,8.941c-0.496,1.27-0.922,2.566-1.276,3.883c-1.129,3.554-3.331,6.671-6.303,8.922
			c-2.132,1.665-4.615,2.823-7.261,3.385c-0.555,0.187-1.155-0.112-1.342-0.666c-0.013-0.04-0.024-0.08-0.033-0.121
			c-0.135-0.68,0.248-1.18,0.97-1.354c2.19-0.51,4.254-1.456,6.069-2.783c2.029-1.493,3.683-3.436,4.834-5.676
			c0.565-1.12,1.007-2.299,1.319-3.514c0.989-3.667,2.907-7.016,5.569-9.725c1.581-1.621,3.396-2.996,5.384-4.079
			c1.012-0.552,2.058-1.039,3.132-1.459C197.303-876.561,197.619-876.679,197.938-876.793z"/>
		<path id="Path_16" fill="#FFFFFF" d="M203.351-847.585c-3.203,6.35-7.301,11.204-12.586,15.047
			c-2.566,1.862-5.345,3.412-8.277,4.617c-0.388,0.231-0.876,0.212-1.245-0.047c-0.722-0.57-0.575-1.538,0.309-1.921
			c1.588-0.671,3.136-1.433,4.636-2.283c8.688-5.023,15.027-13.29,17.625-22.984c0.104-0.599,0.675-1,1.274-0.895
			c0.019,0.003,0.038,0.007,0.057,0.012c0.574,0.112,0.949,0.669,0.837,1.243c-0.009,0.044-0.02,0.087-0.034,0.129
			c-0.35,1.384-0.787,2.744-1.31,4.072C204.16-849.405,203.629-848.234,203.351-847.585z"/>
		<path id="Path_17" fill="#FFFFFF" d="M237.372-839.61c-0.188,0.38-0.372,0.76-0.565,1.138c-0.221,0.561-0.855,0.837-1.416,0.616
			c-0.023-0.009-0.045-0.019-0.067-0.029c-0.56-0.287-0.783-0.972-0.501-1.534c0.264-0.586,0.574-1.151,0.842-1.737
			c2.001-4.515,3.011-9.406,2.962-14.344c-0.037-3.408-0.61-6.79-1.698-10.02c-0.594-1.815-1.339-3.577-2.228-5.267
			c-0.067-0.124-0.125-0.254-0.179-0.384c-0.256-0.518-0.052-1.146,0.459-1.416c0.483-0.298,1.116-0.147,1.414,0.336
			c0.016,0.026,0.031,0.052,0.044,0.08c0.375,0.651,0.717,1.323,1.035,2.005c1.929,4.134,3.054,8.597,3.314,13.151
			c0.145,2.586,0.004,5.181-0.42,7.736c-0.463,2.834-1.248,5.607-2.338,8.263c-0.195,0.477-0.456,0.929-0.686,1.392L237.372-839.61z
			"/>
		<path id="Path_18" fill="#FFFFFF" d="M209.825-863.525c2.597,1.436,4.421,4.007,4.854,7.54c0.132,1.455-0.04,2.921-0.505,4.305
			c-0.804,2.772-1.841,5.47-3.101,8.066c-0.151,0.461-0.577,0.777-1.063,0.785c-0.585,0.018-1.075-0.442-1.093-1.027
			c-0.003-0.087,0.005-0.174,0.024-0.259c0.044-0.199,0.114-0.391,0.209-0.571c1.351-2.745,2.413-5.623,3.169-8.588
			c0.793-3.319-0.738-6.757-3.735-8.387c-2.679-1.403-5.304-1.285-7.863,0.288c-0.669,0.414-1.257,0.946-1.737,1.569
			c-0.257,0.419-0.77,0.603-1.235,0.443c-0.572-0.153-0.913-0.74-0.76-1.312c0.047-0.175,0.137-0.335,0.261-0.465
			c1.531-1.949,3.758-3.229,6.213-3.57C205.5-865.012,207.459-864.705,209.825-863.525z"/>
		<path id="Path_19" fill="#FFFFFF" d="M195.499-851.406c-3.837,7.937-10.809,13.915-19.239,16.496c-0.87,0.27-1.584-0.196-1.569-1
			c0.016-0.538,0.398-0.995,0.924-1.108c2.269-0.684,4.444-1.645,6.477-2.862c3.775-2.248,6.997-5.314,9.428-8.974
			c1.384-2.096,2.505-4.353,3.338-6.722c0.253-0.709,0.815-1.011,1.419-0.779c0.626,0.241,0.849,0.801,0.627,1.492
			C196.531-853.675,196.061-852.518,195.499-851.406z"/>
		<path id="Path_20" fill="#FFFFFF" d="M170.447-861.555c-0.488-0.238-0.727-0.799-0.56-1.315c0.322-1.487,0.739-2.951,1.25-4.383
			c0.659-1.779,1.449-3.507,2.363-5.17c1.25-2.303,2.764-4.452,4.513-6.403c0.759-0.875,1.566-1.708,2.418-2.493
			c1.004-0.942,2.074-1.812,3.2-2.604c0.432-0.258,0.984-0.185,1.334,0.177c0.375,0.366,0.424,0.952,0.116,1.376
			c-0.135,0.173-0.294,0.326-0.472,0.455c-6.392,4.758-10.855,11.66-12.571,19.441C171.853-861.633,171.126-861.213,170.447-861.555
			z"/>
		<path id="Path_21" fill="#FFFFFF" d="M223.874-863.331c-0.24-0.403-0.457-0.82-0.65-1.247c-1.731-3.331-4.341-6.123-7.548-8.074
			c-3.043-1.851-6.509-2.892-10.069-3.024c-0.838-0.042-1.084-0.403-1.12-1.099c0.006-0.62,0.513-1.117,1.133-1.112
			c0.027,0,0.053,0.001,0.08,0.004c2.731,0.133,5.42,0.723,7.956,1.744c3.48,1.438,6.552,3.713,8.942,6.622
			c0.749,0.94,1.439,1.925,2.066,2.95c0.386,0.659,0.731,1.34,1.033,2.042c0.434,0.892-0.08,1.651-1.065,1.657
			C224.311-862.863,224.016-863.043,223.874-863.331z"/>
		<path id="Path_22" fill="#FFFFFF" d="M207.73-840.058c0.544,0.249,0.782,0.891,0.534,1.435c-0.032,0.07-0.071,0.136-0.117,0.197
			c-1.535,2.332-3.257,4.535-5.151,6.586c-3.449,3.719-7.453,6.882-11.869,9.377c-0.808,0.464-1.486,0.233-1.74-0.555
			c-0.18-0.478,0.029-1.015,0.485-1.244c2.18-1.213,4.258-2.602,6.212-4.154c3.721-2.942,6.973-6.433,9.644-10.353
			c0.211-0.312,0.408-0.636,0.637-0.932C206.648-840.167,207.252-840.325,207.73-840.058z"/>
		<path id="Path_23" fill="#FFFFFF" d="M226.714-835.911c-2.494,5.041-5.608,9.75-9.269,14.019
			c-0.185,0.213-0.356,0.441-0.559,0.634c-0.421,0.423-1.105,0.425-1.528,0.005c-0.38-0.378-0.426-0.978-0.107-1.409
			c0.245-0.344,0.533-0.657,0.807-0.979c2.325-2.734,4.412-5.662,6.238-8.752c1.141-1.934,2.151-3.932,3.128-5.95
			c0.287-0.592,0.519-1.209,0.802-1.803c0.186-0.55,0.784-0.846,1.334-0.659c0.044,0.015,0.088,0.033,0.13,0.054
			c0.567,0.271,0.807,0.95,0.537,1.517c-0.008,0.016-0.016,0.032-0.024,0.048C227.633-837.963,227.171-836.692,226.714-835.911z"/>
		<path id="Path_24" fill="#FFFFFF" d="M179.727-858.823c-1.833,3.683-5.173,6.391-9.155,7.422c-0.698,0.179-1.283-0.103-1.44-0.688
			c-0.188-0.688,0.174-1.233,0.903-1.433c3.253-0.828,6.003-2.994,7.57-5.962c0.574-1.15,1.014-2.362,1.313-3.613
			c0.304-1.004,0.673-1.988,1.103-2.945c0.202-0.573,0.83-0.873,1.403-0.671c0.573,0.202,0.873,0.83,0.671,1.403
			c-0.022,0.062-0.049,0.121-0.081,0.178c-0.567,1.343-1.038,2.723-1.411,4.132C180.386-860.247,180.093-859.517,179.727-858.823z"
			/>
		<path id="Path_25" fill="#FFFFFF" d="M191.482-838.895c-0.115,0.224-0.278,0.419-0.477,0.574
			c-3.032,2.671-6.474,4.836-10.193,6.413c-0.561,0.24-1.134,0.452-1.71,0.659c-0.445,0.194-0.962,0.11-1.323-0.215
			c-0.3-0.271-0.413-0.693-0.289-1.078c0.117-0.502,0.538-0.662,0.957-0.812c1.197-0.427,2.367-0.925,3.504-1.491
			c2.827-1.401,5.45-3.181,7.795-5.292c0.418-0.426,1.103-0.432,1.528-0.014c0.335,0.329,0.419,0.836,0.209,1.256L191.482-838.895z"
			/>
		<path id="Path_26" fill="#FFFFFF" d="M178.835-848.149c0.733-0.508,1.437-1.057,2.107-1.646c0.333-0.358,0.861-0.455,1.299-0.237
			c0.414,0.217,0.658,0.661,0.62,1.127c-0.01,0.154-0.077,0.298-0.189,0.405c-0.567,0.629-1.207,1.187-1.907,1.664
			c-0.694,0.536-1.458,0.973-2.175,1.474c-0.559,0.338-1.141,0.634-1.742,0.888c-0.614,0.313-1.254,0.569-1.896,0.821
			c-0.852,0.308-1.719,0.571-2.598,0.788c-0.623,0.23-1.314-0.089-1.544-0.712c-0.174-0.635,0.271-1.246,1.024-1.424
			C174.344-845.601,176.72-846.669,178.835-848.149z"/>
		<path id="Path_27" fill="#FFFFFF" d="M210.029-828.702c0.533,0.264,0.751,0.91,0.487,1.443c-0.049,0.099-0.113,0.19-0.189,0.269
			c-0.768,0.932-1.607,1.802-2.464,2.651c-1.675,1.675-3.452,3.243-5.322,4.696c-0.196,0.182-0.432,0.316-0.688,0.393
			c-0.585,0.125-1.16-0.248-1.285-0.833c-0.083-0.389,0.054-0.792,0.356-1.05c0.932-0.791,1.902-1.539,2.816-2.35
			c1.041-0.923,2.067-1.866,3.04-2.86c0.511-0.522,1.008-1.057,1.485-1.611C208.772-828.54,209.162-829.127,210.029-828.702z"/>
		<path id="Path_28" fill="#FFFFFF" d="M200.385-879.525l0.142-0.03L200.385-879.525z"/>
		<path id="Path_29" fill="#FFFFFF" d="M200.253-879.465l0.131-0.059L200.253-879.465z"/>
	</g>
	<path fill="#FFFFFF" d="M250.367,500.891c4.392-10.083,15.213-14.205,25.47-9.735c4.959,2.161,8.703,5.782,10.261,10.44
		l-3.292,1.317c-1.528-4.061-4.396-6.773-8.285-8.468c-8.216-3.58-17.048-0.171-20.605,7.992
		c-3.557,8.164-0.039,16.952,8.177,20.532c3.89,1.695,7.829,1.949,11.864,0.255l1.278,3.306c-4.471,2.031-9.694,1.803-14.701-0.379
		C250.323,521.704,245.974,510.973,250.367,500.891z"/>
	<path fill="#FFFFFF" d="M306.004,526.536l-6.986,16.033l-3.306-1.441l1.757-4.033c-2.712,1.978-6.434,2.287-10.664,0.444
		c-5.785-2.521-8.006-7.116-6.056-11.59c1.735-3.984,5.721-6.227,13.062-3.028l8.119,3.537l0.685-1.575
		c1.929-4.426,0.499-7.916-4.265-9.992c-3.306-1.439-6.931-1.616-9.837-0.659l-0.42-3.284c3.541-1.089,7.891-0.716,11.925,1.042
		C306.631,514.872,308.918,519.847,306.004,526.536z M298.951,533.294l1.843-4.229l-8.022-3.495
		c-4.959-2.161-7.419-0.893-8.577,1.763c-1.307,3,0.26,5.907,4.345,7.686C292.43,536.713,296.112,536.095,298.951,533.294z"/>
	<path fill="#FFFFFF" d="M306.136,542.158l2.755-2.075c1.335,2.511,4.23,5.294,7.828,6.862c4.862,2.119,7.584,1.315,8.699-1.243
		c2.935-6.737-15.957-8.649-11.5-18.879c1.843-4.229,6.811-5.81,13.326-2.971c3.306,1.441,6.496,3.943,7.993,6.35l-2.728,2.146
		c-1.551-2.548-3.947-4.353-6.572-5.497c-4.619-2.012-7.453-1.082-8.526,1.377c-3.043,6.983,15.829,8.944,11.5,18.879
		c-1.95,4.475-7.103,5.683-13.764,2.781C310.917,548.045,307.433,544.889,306.136,542.158z"/>
	<path fill="#FFFFFF" d="M362.238,552.266l-6.535,14.999l-3.452-1.503l6.385-14.656c2.379-5.46,0.78-9.491-4.081-11.61
		c-5.494-2.394-10.446-0.455-13.017,5.448l-5.914,13.574l-3.453-1.504l15.899-36.492l3.453,1.504l-6.6,15.147
		c3.203-2.174,7.307-2.434,11.634-0.549C362.781,539.337,365.474,544.84,362.238,552.266z"/>
	<path fill="#FFFFFF" d="M414.914,553.013l-14.629,33.577l-3.367-1.467l11.704-26.86l-22.883,16.909l-1.66-0.722l-3.259-28.129
		l-11.641,26.716l-3.367-1.466l14.629-33.578l2.892,1.261l3.569,31.176l25.119-18.677L414.914,553.013z"/>
	<path fill="#FFFFFF" d="M437.134,588.89l-20.864-9.09c-1.919,5.442,0.538,10.679,5.991,13.054c3.035,1.323,6.219,1.397,9.076,0.017
		l0.936,3.033c-3.4,1.715-7.488,1.646-11.424-0.069c-7.777-3.389-10.747-11.074-7.487-18.557
		c3.261-7.484,10.749-10.555,17.766-7.498c7.018,3.058,9.814,10.497,6.512,18.076C437.516,588.143,437.301,588.507,437.134,588.89z
		 M417.378,577.258l17.686,7.705c1.726-5.125-0.326-10.129-5.21-12.257C425.018,570.599,419.957,572.503,417.378,577.258z"/>
	<path fill="#FFFFFF" d="M443.645,446.12c3.938-9.037,0.166-19.014-7.832-22.499c-7.998-3.485-53.134-23.043-63.708-27.65
		c-10.574-4.607-19.532,2.874-21.422,7.212c-1.89,4.338-29.044,66.662-29.044,66.662c-2.973,6.823,0.958,17.299,8.142,20.43
		c7.185,3.13,56.961,24.872,64.733,28.258s17.991-0.817,21.515-8.906C419.553,501.538,439.708,455.157,443.645,446.12z
		 M392.834,509.521c-6.632-2.89-49.108-21.442-55.239-24.113c-6.131-2.671-9.485-11.611-6.948-17.433
		c0,0,23.172-53.183,24.785-56.885c1.613-3.702,9.258-10.086,18.28-6.155c9.023,3.931,47.539,20.621,54.364,23.594
		c6.825,2.974,10.043,11.487,6.683,19.199c-3.36,7.712-20.559,47.291-23.566,54.193S399.466,512.41,392.834,509.521z"/>
	<path fill="#FFFFFF" d="M372.915,489.686l-7.049-3.071l3.337-7.659l-9.76-4.253l3.13-7.185c0,0,15.145,6.518,18.534,7.994
		s7.306-0.849,8.669-6.384c1.363-5.535-4.723-7.3-6.282-7.979c-1.559-0.679-4.745-2.067-7.397-3.384
		c-2.652-1.317-11.22-7.38-6.404-18.436c4.577-10.506,16.489-8.784,19.954-7.113l3.367-7.727l6.981,3.042l-3.337,7.659l9.693,4.223
		l-3.071,7.049c0,0-14.912-6.497-18.301-7.974s-7.233,1.607-8.443,4.386c-1.211,2.779-0.32,6.473,4.153,8.423
		c4.474,1.949,6.1,2.658,9.498,4.299c3.398,1.642,9.928,8.681,6.681,17.428c-3.247,8.747-11.521,12.561-20.616,9.002
		L372.915,489.686z"/>
	<g id="Bars___Time_Black_1_">
		<path id="_Time_1_" fill="#FFFFFF" d="M400.676,55.972c3.122,0.698,5.523-1.33,6.446-5.464c0.348-1.336,0.347-2.738-0.001-4.073
			c-0.413-1.7-1.781-3.001-3.5-3.328c-2.671-0.597-4.961,0.776-5.524,3.295c-0.57,2.15,0.711,4.355,2.861,4.925
			c0.088,0.023,0.178,0.044,0.267,0.061c1.315,0.361,2.719-0.079,3.592-1.126l0.145,0.032c-0.627,2.808-2.065,4.244-3.86,3.843
			c-0.99-0.167-1.739-0.986-1.817-1.986l-2.186-0.488C397.016,53.761,398.43,55.47,400.676,55.972z M402.144,49.761
			c-1.293-0.233-2.152-1.469-1.92-2.762c0.011-0.062,0.025-0.124,0.041-0.185c0.308-1.338,1.642-2.172,2.98-1.864
			c1.338,0.308,2.172,1.642,1.864,2.98c-0.263,1.293-1.524,2.128-2.817,1.865C402.242,49.786,402.193,49.775,402.144,49.761z
			 M409.869,56.346c0.745,0.157,1.475-0.32,1.632-1.064c0.157-0.745-0.32-1.475-1.064-1.632c-0.738-0.155-1.464,0.312-1.628,1.048
			c-0.183,0.715,0.248,1.444,0.963,1.627C409.803,56.333,409.836,56.341,409.869,56.346z M411.294,49.966
			c0.708,0.195,1.44-0.221,1.636-0.929c0.009-0.034,0.017-0.068,0.024-0.103c0.155-0.755-0.331-1.492-1.086-1.647
			c-0.736-0.151-1.46,0.308-1.636,1.039c-0.18,0.715,0.254,1.441,0.969,1.621C411.231,49.954,411.263,49.961,411.294,49.966
			L411.294,49.966z M419.426,59.849l2.101,0.47l0.511-2.287l1.66,0.371l0.415-1.856l-1.66-0.371l1.817-8.133l-3.097-0.692
			c-2.899,2.782-5.237,5.127-6.797,6.913l-0.437,1.958l5.998,1.34L419.426,59.849z M416.404,54.743
			c1.992-2.199,3.719-3.93,5.28-5.403l0.119,0.027l-1.43,6.398l-3.999-0.893L416.404,54.743z M428.219,61.813l2.195,0.49
			l2.743-12.276l-2.187-0.489l-3.709,1.529l-0.471,2.11l3.533-1.462l0.145,0.032L428.219,61.813z"/>
	</g>
	<g>
		<g id="Wifi_1_" transform="translate(886.836 6.99)">
			<defs>
				<path id="SVGID_1_" d="M687.873,101.731c2.658,0.606,4.982,2.21,6.49,4.481c0.113,0.175,0.345,0.226,0.521,0.115l1.706-1.084
					c0.089-0.056,0.152-0.146,0.174-0.248c0.023-0.103,0.004-0.21-0.053-0.299c-3.951-5.998-11.928-7.816-18.089-4.124
					c-0.09,0.055-0.154,0.144-0.178,0.246c-0.024,0.103-0.006,0.21,0.049,0.3l1.068,1.716c0.11,0.176,0.342,0.231,0.519,0.123
					C682.426,101.564,685.215,101.126,687.873,101.731z M686.836,106.284c1.46,0.333,2.745,1.197,3.604,2.424
					c0.115,0.173,0.346,0.222,0.521,0.112l1.704-1.084c0.09-0.057,0.153-0.147,0.175-0.251c0.023-0.104,0.003-0.212-0.055-0.301
					c-2.598-3.818-7.703-4.982-11.698-2.667c-0.091,0.055-0.156,0.144-0.181,0.247c-0.025,0.103-0.007,0.212,0.05,0.302l1.066,1.715
					c0.11,0.175,0.34,0.231,0.518,0.125C683.845,106.175,685.376,105.952,686.836,106.284z M688.734,110.232
					c0.091-0.056,0.154-0.146,0.176-0.251c0.022-0.104-0.001-0.213-0.062-0.3c-1.235-1.643-3.476-2.154-5.301-1.208
					c-0.093,0.052-0.16,0.14-0.186,0.243c-0.026,0.103-0.008,0.213,0.049,0.302l1.845,2.964c0.112,0.18,0.348,0.235,0.528,0.124
					c0.001-0.001,0.003-0.002,0.004-0.002L688.734,110.232z"/>
			</defs>
			<use xlink:href="#SVGID_1_"  overflow="visible" fill="#FFFFFF"/>
			<clipPath id="SVGID_2_">
				<use xlink:href="#SVGID_1_"  overflow="visible"/>
			</clipPath>
			<g id="Wifi-2_1_" transform="translate(0 0)" clip-path="url(#SVGID_2_)">
				<path id="Fill-4_1_" fill="#FFFFFF" d="M674.704,89.546l30.316,6.911l-5.733,25.149l-30.316-6.911L674.704,89.546z"/>
			</g>
		</g>
		<g>
			<g id="Cellular_Connection_1_" transform="translate(820.773 7.998)">
				<defs>
					<path id="SVGID_3_" d="M649.635,99.012l1.231,0.275c0.68,0.152,1.108,0.826,0.956,1.506l-0.55,2.462
						c-0.152,0.68-0.826,1.108-1.506,0.956l-1.231-0.275c-0.68-0.152-1.108-0.826-0.956-1.506l0.55-2.462
						C648.281,99.288,648.955,98.86,649.635,99.012z M655.93,97.834l1.231,0.275c0.68,0.152,1.108,0.826,0.956,1.506l-1.1,4.924
						c-0.152,0.68-0.826,1.108-1.506,0.956l-1.231-0.275c-0.68-0.152-1.108-0.826-0.956-1.506l1.1-4.924
						c0.152-0.679,0.825-1.106,1.504-0.955L655.93,97.834z M662.316,96.245l1.231,0.275c0.68,0.152,1.108,0.826,0.956,1.506
						l-1.741,7.795c-0.152,0.68-0.826,1.108-1.506,0.956l-1.231-0.275c-0.68-0.152-1.108-0.826-0.956-1.506l1.741-7.794
						c0.152-0.678,0.824-1.106,1.503-0.956L662.316,96.245z M668.702,94.656l1.231,0.275c0.68,0.152,1.108,0.826,0.956,1.506
						l-2.383,10.667c-0.152,0.68-0.826,1.108-1.506,0.956l-1.231-0.275c-0.68-0.152-1.108-0.826-0.956-1.506l2.383-10.665
						c0.152-0.68,0.826-1.108,1.506-0.956L668.702,94.656z"/>
				</defs>
				<use xlink:href="#SVGID_3_"  overflow="visible" fill="#FFFFFF"/>
				<clipPath id="SVGID_4_">
					<use xlink:href="#SVGID_3_"  overflow="visible"/>
				</clipPath>
				<g id="Cellular_Connection-2_1_" transform="translate(0 0)" clip-path="url(#SVGID_4_)">
					<path id="Fill-5_1_" fill="#FFFFFF" d="M645.459,83.006l33.226,7.423l-5.682,25.432l-33.226-7.423L645.459,83.006z"/>
				</g>
			</g>
		</g>
		<g>
			<path fill="#FFFFFF" d="M715.982,118.803c-3.74-0.824-7.478-1.654-11.22-2.465c-0.514-0.111-0.874-0.704-0.735-1.335
				c0.798-3.608,1.591-7.217,2.387-10.826c0.139-0.631,0.672-1.013,1.235-0.889c7.474,1.647,14.948,3.296,22.423,4.936
				c0.51,0.112,0.935,0.648,0.757,1.415c-0.122,0.527-0.23,1.058-0.353,1.586c-0.035,0.15-0.003,0.214,0.133,0.242
				c0.47,0.097,0.939,0.201,1.406,0.309c0.473,0.109,0.762,0.467,0.799,0.994c0.008,0.109-0.006,0.225-0.03,0.334
				c-0.356,1.628-0.714,3.255-1.074,4.882c-0.141,0.637-0.665,1.016-1.231,0.895c-0.464-0.1-0.927-0.204-1.391-0.305
				c-0.218-0.048-0.217-0.047-0.271,0.191c-0.134,0.585-0.266,1.172-0.405,1.756c-0.118,0.497-0.673,0.88-1.166,0.77
				C723.493,120.454,719.737,119.631,715.982,118.803L715.982,118.803z M718.617,106.869c-3.678-0.81-7.356-1.621-11.034-2.431
				c-0.202-0.044-0.201-0.044-0.251,0.186c-0.758,3.44-1.516,6.881-2.273,10.321c-0.062,0.28-0.112,0.264,0.192,0.331
				c7.33,1.615,14.66,3.23,21.99,4.846c0.235,0.052,0.235,0.052,0.294-0.213c0.757-3.434,1.513-6.869,2.27-10.303
				c0.057-0.257,0.057-0.257-0.169-0.307C725.962,108.487,722.289,107.678,718.617,106.869z M731.277,115.343
				c0.164-0.744,0.325-1.488,0.494-2.23c0.032-0.141,0.006-0.204-0.124-0.231c-0.429-0.087-0.856-0.182-1.282-0.282
				c-0.131-0.031-0.191,0.003-0.224,0.159c-0.322,1.482-0.649,2.964-0.98,4.444c-0.039,0.174,0.012,0.231,0.154,0.26
				c0.413,0.084,0.826,0.173,1.236,0.273c0.15,0.037,0.207-0.014,0.242-0.179C730.948,116.818,731.114,116.081,731.277,115.343z"/>
			<path fill="#FFFFFF" d="M727.883,114.605c-0.28,1.272-0.56,2.545-0.841,3.817c-0.103,0.468-0.328,0.63-0.739,0.54
				c-0.69-0.152-1.377-0.32-2.071-0.451c-0.495-0.094-0.547-0.46-0.463-0.839c0.374-1.69,0.746-3.381,1.118-5.072
				c0.186-0.842,0.368-1.686,0.56-2.527c0.032-0.142,0.087-0.289,0.165-0.406c0.106-0.159,0.265-0.228,0.442-0.19
				c0.793,0.174,1.587,0.346,2.379,0.526c0.253,0.057,0.385,0.35,0.314,0.681c-0.118,0.553-0.242,1.104-0.364,1.656
				C728.216,113.095,728.05,113.85,727.883,114.605z"/>
			<path fill="#FFFFFF" d="M723.468,113.628c-0.285,1.295-0.571,2.591-0.856,3.886c-0.086,0.391-0.316,0.562-0.666,0.487
				c-0.732-0.158-1.463-0.32-2.194-0.483c-0.342-0.076-0.487-0.336-0.401-0.725c0.571-2.597,1.143-5.194,1.716-7.79
				c0.086-0.391,0.32-0.555,0.669-0.479c0.736,0.162,1.473,0.324,2.209,0.487c0.325,0.072,0.468,0.328,0.387,0.696
				C724.044,111.014,723.756,112.321,723.468,113.628z"/>
			<path fill="#FFFFFF" d="M714.643,111.684c-0.286,1.296-0.579,2.59-0.852,3.889c-0.078,0.371-0.351,0.562-0.665,0.488
				c-0.729-0.171-1.463-0.324-2.193-0.488c-0.339-0.076-0.478-0.325-0.393-0.71c0.573-2.61,1.148-5.219,1.725-7.828
				c0.081-0.366,0.312-0.529,0.635-0.458c0.747,0.164,1.494,0.329,2.241,0.494c0.312,0.069,0.449,0.317,0.371,0.672
				C715.222,109.057,714.933,110.37,714.643,111.684z"/>
			<path fill="#FFFFFF" d="M719.058,112.663c-0.282,1.278-0.573,2.555-0.84,3.837c-0.085,0.408-0.376,0.612-0.722,0.527
				c-0.691-0.171-1.39-0.311-2.085-0.465c-0.434-0.096-0.549-0.302-0.443-0.784c0.567-2.574,1.139-5.148,1.697-7.724
				c0.086-0.395,0.353-0.583,0.682-0.501c0.722,0.179,1.448,0.34,2.179,0.479c0.313,0.059,0.473,0.396,0.401,0.712
				C719.629,110.047,719.346,111.356,719.058,112.663z"/>
			<path fill="#FFFFFF" d="M707.002,109.984c0.288-1.307,0.576-2.615,0.865-3.922c0.081-0.367,0.303-0.527,0.63-0.455
				c0.742,0.163,1.484,0.326,2.225,0.49c0.318,0.07,0.455,0.303,0.393,0.663c-0.007,0.041-0.017,0.082-0.026,0.122
				c-0.562,2.551-1.123,5.102-1.688,7.653c-0.028,0.125-0.066,0.26-0.136,0.36c-0.126,0.18-0.302,0.245-0.503,0.2
				c-0.752-0.167-1.503-0.336-2.256-0.495c-0.321-0.068-0.441-0.4-0.373-0.695C706.433,112.601,706.714,111.292,707.002,109.984z"/>
		</g>
	</g>
</g>
</svg>
